<svg xmlns="http://www.w3.org/2000/svg" viewBox="0 0 72.84 72.84"><defs><style>.cls-1{fill:#242424;}.cls-2{fill:#fff;}</style></defs><title>Ativo 14</title><g id="Camada_2" data-name="Camada 2"><g id="Camada_1-2" data-name="Camada 1"><path class="cls-1" d="M72.84,72.84H20.51L0,0H64Z"/><polygon class="cls-2" points="60.77 21.06 55.1 37.68 54.81 38.58 44.62 38.58 44.3 37.68 39.2 23.07 34.14 37.68 33.82 38.58 23.62 38.58 23.3 37.68 17.94 21.96 12.26 21.96 12.06 21.06 19.17 21.06 24.81 37.68 32.7 37.68 38.52 21.06 39.95 21.06 45.73 37.68 53.63 37.68 59.33 21.06 60.77 21.06"/><polygon class="cls-2" points="54.49 41.02 53.88 42.81 50.83 51.78 48.71 51.78 45.59 42.81 44.98 41.02 47.31 41.02 47.96 42.81 49.72 47.91 51.47 42.81 52.08 41.02 54.49 41.02"/><polygon class="cls-2" points="33.49 41.02 32.88 42.81 29.76 51.78 27.61 51.78 24.56 42.81 23.95 41.02 26.39 41.02 27 42.81 28.72 47.87 30.48 42.81 31.12 41.02 33.49 41.02"/></g></g></svg>