<svg xmlns="http://www.w3.org/2000/svg" viewBox="0 0 276.11 30.98"><defs><style>.cls-1{fill:#242424;}</style></defs><title>Ativo 11</title><g id="Camada_2" data-name="Camada 2"><g id="Camada_1-2" data-name="Camada 1"><polygon class="cls-1" points="43.01 0.18 37.35 16.74 37.07 17.64 26.9 17.64 26.58 16.74 21.5 2.18 16.46 16.74 16.13 17.64 5.97 17.64 5.65 16.74 0 0.18 1.54 0.18 7.15 16.74 15.03 16.74 20.82 0.18 22.25 0.18 28.01 16.74 35.89 16.74 41.57 0.18 43.01 0.18"/><path class="cls-1" d="M122.12.18V17.64H111a7,7,0,0,0,.15-.9c0-.5.07-1,.07-1.54a13.89,13.89,0,0,0-1.83-7.08,13.25,13.25,0,0,0-5.08-5,14.22,14.22,0,0,0-7.15-1.83A14.08,14.08,0,0,0,90,3.15a12.88,12.88,0,0,0-5,5,13.52,13.52,0,0,0-1.86,7.08c0,.54,0,1,.07,1.54a7,7,0,0,0,.14.9H72.27v-2H51.16v2H49.73V.18h1.43V14.31H72.27V.18H73.7V16.74h8.06a9.63,9.63,0,0,1-.11-1.54,15,15,0,0,1,2-7.76A14.3,14.3,0,0,1,89.23,2a16.45,16.45,0,0,1,8-2,16.64,16.64,0,0,1,7.94,2,14.68,14.68,0,0,1,5.58,5.48,15.24,15.24,0,0,1,2,7.76,10.94,10.94,0,0,1-.11,1.54h8.05V.18Z"/><path class="cls-1" d="M183.87,1.5V14.31h16.32v1.32H183.87v2H146.3c-.21-.11-.46-.22-.71-.33-.5-.17-1.11-.39-1.76-.57-.85-.25-1.89-.54-3-.82a46,46,0,0,1-5.26-1.58A8.33,8.33,0,0,1,132.21,12a6.22,6.22,0,0,1-1.4-4.25A7,7,0,0,1,132,3.86a7.23,7.23,0,0,1,3.39-2.79A13.48,13.48,0,0,1,141.08,0a17.11,17.11,0,0,1,4.83.71,13.22,13.22,0,0,1,4.08,2l-.68,1.15A12.5,12.5,0,0,0,145.41,2a14.11,14.11,0,0,0-4.29-.68c-2.9,0-5.12.61-6.62,1.83a5.68,5.68,0,0,0-2.26,4.62,4.88,4.88,0,0,0,1.22,3.5,8.39,8.39,0,0,0,3,2,42.65,42.65,0,0,0,4.8,1.39,44.83,44.83,0,0,1,5.22,1.57,7.56,7.56,0,0,1,1.15.54H164.3V1.5h-11V.18h23.47V1.5h-11V16.74h16.71V.18h19.68V1.5Z"/><polygon class="cls-1" points="15.81 20.07 15.2 21.86 12.09 30.8 9.94 30.8 6.9 21.86 6.29 20.07 8.73 20.07 9.34 21.86 11.05 26.9 12.81 21.86 13.45 20.07 15.81 20.07"/><polygon class="cls-1" points="51.63 20.07 51.63 30.8 49.3 30.8 49.3 21.86 36.14 21.86 33.09 30.8 30.98 30.8 27.87 21.86 27.26 20.07 29.59 20.07 30.23 21.86 31.99 26.94 33.74 21.86 34.35 20.07 51.63 20.07"/><path class="cls-1" d="M166.2,20.07V30.8h-2.33V21.86H151.56a4.62,4.62,0,0,1,.07,1A7.37,7.37,0,0,1,150.42,27a7.9,7.9,0,0,1-3.69,2.94,15,15,0,0,1-6,1.07,17.32,17.32,0,0,1-6.37-1.18,12,12,0,0,1-4.72-3.11l-.22-.29,1.33-1.75.36.39a10.47,10.47,0,0,0,4,2.72,15.37,15.37,0,0,0,5.59,1c2.86,0,5.08-.57,6.51-1.68a5.06,5.06,0,0,0,2.14-4.22,5,5,0,0,0-.1-1,3.72,3.72,0,0,0-.75-1.79Z"/><polygon class="cls-1" points="203.19 28.58 203.19 30.8 182.01 30.8 182.01 20.07 184.37 20.07 184.37 28.58 203.19 28.58"/><polygon class="cls-1" points="235.86 30.8 233.29 30.8 229.28 22.04 211.85 22.04 207.81 30.8 205.23 30.8 209.38 21.86 210.21 20.07 230.89 20.07 231.71 21.86 235.86 30.8"/><polygon class="cls-1" points="269.21 30.8 269.21 21.86 259.44 21.86 256.69 26.65 255.4 26.65 252.61 21.86 242.87 21.86 242.87 30.8 240.58 30.8 240.58 20.07 254.07 20.07 255.11 21.86 256.04 23.47 256.97 21.86 257.97 20.07 271.5 20.07 271.5 21.86 271.53 30.8 269.21 30.8"/><path class="cls-1" d="M122.58,20.07V30.8h-2.36V21.86h-8.41a8.64,8.64,0,0,1-.71,1.47A15.13,15.13,0,0,1,105.33,29a17.56,17.56,0,0,1-16.28,0,14.79,14.79,0,0,1-5.72-5.65,10.71,10.71,0,0,1-.75-1.47H74.17V30.8H71.84V20.07H84.4a8.87,8.87,0,0,0,.79,1.79,2,2,0,0,0,.18.36A12.6,12.6,0,0,0,90.27,27a14.58,14.58,0,0,0,13.85,0,12.6,12.6,0,0,0,4.9-4.79,2,2,0,0,0,.18-.36,8.87,8.87,0,0,0,.79-1.79Z"/><polygon class="cls-1" points="276.11 16.74 276.11 17.64 269.64 17.64 269.64 16.74 269.6 3.15 261.77 16.74 261.23 17.64 250.78 17.64 250.25 16.74 242.41 3.22 242.41 17.64 227.78 17.64 227.38 16.74 220.55 1.86 213.68 16.74 213.28 17.64 211.75 17.64 212.17 16.74 219.83 0.18 221.26 0.18 228.92 16.74 241.01 16.74 241.01 0.18 242.19 0.18 251.71 16.74 260.3 16.74 269.82 0.18 271 0.18 271.03 16.74 276.11 16.74"/></g></g></svg>