<?xml version="1.0" encoding="utf-8"?>
<!-- Generator: Adobe Illustrator 22.1.0, SVG Export Plug-In . SVG Version: 6.00 Build 0)  -->
<svg version="1.1" xmlns="http://www.w3.org/2000/svg" xmlns:xlink="http://www.w3.org/1999/xlink" x="0px" y="0px"
	 viewBox="0 0 841.9 595.3" style="enable-background:new 0 0 841.9 595.3;" xml:space="preserve">
<style type="text/css">
	.st0{fill:#040006;}
	.st1{fill:#232223;}
	.st2{fill:#FFFFFF;}
	.st3{fill:#DBDBDB;}
	.st4{fill:#242424;}
	.st5{font-family:'Cousine-Regular';}
	.st6{font-size:30.7489px;}
	.st7{font-family:'BarlowCondensed-Italic';}
	.st8{font-family:'Barlow-Thin';}
	.st9{font-family:'FontAwesome5FreeSolid';}
</style>
<g id="Camada_2">
	<rect x="420.9" class="st0" width="420.9" height="595.3"/>
</g>
<g id="Camada_1">
	<g>
		<path class="st0" d="M316.5,200.3l-34.5,34.5c-2-2-5.1-2-7.1,0l-34.5-34.5c2-2,2-5.1,0-7.1l34.5-34.5c2,2,5.1,2,7.1,0l34.5,34.5
			C314.5,195.1,314.5,198.3,316.5,200.3z"/>
		<path class="st0" d="M301.6,226h-46.3c0-3.5-2.8-6.3-6.3-6.3v-46.3c3.5,0,6.3-2.8,6.3-6.3h46.3c0,3.5,2.8,6.3,6.3,6.3v46.3
			C304.4,219.8,301.6,222.6,301.6,226z"/>
		<path class="st0" d="M314.5,186.5l-17.8,43.1c-1.3,3.1-4.9,4.6-8,3.3L245.6,215c-3.1-1.3-4.6-4.9-3.3-8l17.8-43.1
			c1.3-3.1,4.9-4.6,8-3.3l43.1,17.8C314.3,179.8,315.8,183.4,314.5,186.5z"/>
		<path class="st0" d="M312.2,214.5l-45.1,18.7c-2.5-1.1-4-1.6-6.5-2.7l-18.7-45.1c1.1-2.5,1.6-4,2.7-6.5l45.1-18.7
			c2.5,1.1,4,1.6,6.5,2.7l18.7,45.1C313.9,210.5,313.3,211.9,312.2,214.5z"/>
	</g>
	<polygon class="st0" points="82.6,62.7 83.2,64.4 80.7,64.4 80.1,62.7 	"/>
	<polygon class="st0" points="89.6,62.7 89,64.4 86.6,64.4 87.3,62.7 	"/>
	<polygon class="st0" points="104.1,64.4 101.7,64.4 101.1,62.7 103.4,62.7 	"/>
	<polygon class="st0" points="125.5,62.7 125.5,64.4 107.6,64.4 108.2,62.7 	"/>
	<polygon class="st0" points="90.3,59.3 90,60.2 79.8,60.2 79.5,59.3 	"/>
	<polygon class="st0" points="111.2,59.3 110.9,60.2 100.7,60.2 100.4,59.3 	"/>
	<rect x="123.6" y="59.3" class="st0" width="1.4" height="0.9"/>
	<g>
		<g>
			<path class="st0" d="M81,59.3l-5.6-16.6h-1.5l5.7,16.6l0.3,0.9h1.5L81,59.3z M115.4,42.8l-5.7,16.6l-0.3,0.9h1.5l0.3-0.9
				l5.7-16.6H115.4z M101.9,59.3l-5.8-16.6h-1.4l-5.8,16.6l-0.3,0.9H90l0.3-0.9l5-14.6l5.1,14.6l0.3,0.9h1.4L101.9,59.3z"/>
			<path class="st0" d="M146.1,42.8v14.1H125V42.8h-1.4v17.5h1.4v-2h21.1v2h1.4V42.8H146.1z"/>
			<path class="st0" d="M184.5,50c-1.4-2.3-3.2-4.2-5.6-5.5c-2.4-1.3-5-2-7.9-2c-2.9,0-5.6,0.7-7.9,2c-2.4,1.3-4.2,3.1-5.5,5.5
				c-1.4,2.3-2,4.9-2,7.8c0,0.5,0,1,0.1,1.5c0,0.3,0,0.6,0.1,0.9h1.5c-0.1-0.3-0.1-0.6-0.1-0.9c0-0.5-0.1-1-0.1-1.5
				c0-2.6,0.6-5,1.9-7.1c1.2-2.1,2.9-3.8,5-5c2.1-1.2,4.5-1.8,7.2-1.8c2.6,0,5,0.6,7.2,1.8c2.1,1.2,3.8,2.9,5.1,5
				c1.2,2.1,1.8,4.5,1.8,7.1c0,0.5,0,1-0.1,1.5c0,0.3-0.1,0.6-0.1,0.9h1.5c0.1-0.3,0.1-0.6,0.1-0.9c0.1-0.5,0.1-1,0.1-1.5
				C186.5,54.9,185.9,52.3,184.5,50z"/>
			<path class="st0" d="M194.5,42.8v17.5h1.5V42.8H194.5z"/>
			<path class="st0" d="M208.3,45.7c1.5-1.2,3.7-1.8,6.6-1.8c1.4,0,2.8,0.2,4.3,0.7c1.4,0.4,2.8,1.1,3.9,1.9l0.7-1.1
				c-1.1-0.9-2.5-1.5-4.1-2c-1.6-0.5-3.2-0.7-4.8-0.7c-2.3,0-4.2,0.4-5.7,1.1c-1.5,0.7-2.7,1.6-3.4,2.8c-0.8,1.2-1.1,2.5-1.1,3.9
				c0,1.8,0.5,3.2,1.4,4.3c0.9,1.1,2,1.8,3.3,2.4c1.3,0.5,3.1,1,5.3,1.6c1.1,0.3,2.2,0.6,3,0.8c0.6,0.2,1.3,0.4,1.8,0.6
				c0.3,0.1,0.5,0.2,0.7,0.3h2.6c-0.4-0.4-0.8-0.6-1.3-0.9c-0.4-0.2-0.8-0.4-1.1-0.5c-1.3-0.5-3-1-5.2-1.6c-2-0.5-3.6-1-4.8-1.4
				c-1.2-0.5-2.2-1.1-3-2c-0.8-0.9-1.2-2-1.2-3.5C206.1,48.4,206.8,46.9,208.3,45.7z"/>
			<path class="st0" d="M227.1,42.8v1.3h11v16.1h1.4V44.1h11v-1.3H227.1z"/>
			<path class="st0" d="M276,44.1v-1.3h-19.7v17.5h1.4v-2H274v-1.3h-16.3V44.1H276z"/>
			<path class="st0" d="M302.8,59.3l-7.7-16.6h-1.4L286,59.3l-0.4,0.9h1.5l0.4-0.9l6.9-14.9l6.8,14.9l0.4,0.9h1.5L302.8,59.3z"/>
			<path class="st0" d="M344.8,42.8h-1.2l-9.5,16.6l-0.5,0.9h1.4l0.5-0.9l7.8-13.6l0,13.6v0.9h1.4v-0.9L344.8,42.8z M325.5,59.3
				L316,42.8h-1.2v17.5h1.4V45.8l7.8,13.5l0.5,0.9h1.4L325.5,59.3z"/>
		</g>
		<g>
			<g>
				<path class="st0" d="M108.7,62.7l-0.6,1.8l-2.2,6.4l-2.3-6.4l-0.6-1.8h-1.4l0.6,1.8l3,8.5h1.5l2.9-8.5l0.6-1.8H108.7z
					 M87.8,62.7l-0.6,1.8l-2.3,6.4l-2.2-6.4l-0.6-1.8h-1.5l0.6,1.8l2.9,8.5h1.5l3-8.5l0.6-1.8H87.8z"/>
				<path class="st0" d="M109.7,62.7l-0.6,1.8l-2.8,8.1h-0.8l-2.8-8.1l-0.6-1.8h-0.9l0.6,1.8l3.1,8.9h2.1l3-8.9l0.6-1.8H109.7z
					 M108.2,62.7l-0.6,1.8l-1.8,5.1l-1.8-5.1l-0.6-1.8h-0.9l0.6,1.8l2.7,7.8l2.7-7.8l0.6-1.8H108.2z M88.7,62.7l-0.6,1.8l-2.8,8.1
					h-0.9l-2.8-8.1l-0.6-1.8h-0.9l0.6,1.8l3,8.9h2.1l3.1-8.9l0.6-1.8H88.7z M87.3,62.7l-0.6,1.8l-1.8,5l-1.7-5l-0.6-1.8h-0.9
					l0.6,1.8l2.6,7.8l2.7-7.8l0.6-1.8H87.3z"/>
			</g>
			<g>
				<path class="st0" d="M123.6,62.7V73h1.5V62.7H123.6z M146.1,62.7V73h1.5V62.7H146.1z"/>
				<path class="st0" d="M124.6,62.7v9.9H124v-9.9h-0.9v10.7h2.3V62.7H124.6z M147.1,62.7v9.9h-0.5v-9.9h-0.9v10.7h2.3V62.7H147.1z"
					/>
			</g>
			<g>
				<path class="st0" d="M184.3,62.7c-0.2,0.6-0.5,1.2-0.8,1.8c-0.1,0.2-0.2,0.4-0.3,0.6c-1.2,2.1-2.9,3.8-5,5
					c-2.1,1.2-4.5,1.8-7.2,1.8c-2.6,0-5-0.6-7.2-1.8c-2.1-1.2-3.8-2.9-5-5c-0.1-0.2-0.2-0.4-0.3-0.6c-0.3-0.6-0.6-1.2-0.8-1.8h-1.5
					c0.2,0.6,0.4,1.2,0.7,1.8c0.2,0.4,0.4,0.9,0.6,1.3c1.4,2.3,3.2,4.2,5.6,5.5c2.4,1.3,5,2,7.9,2c2.9,0,5.6-0.7,7.9-2
					c2.4-1.3,4.3-3.1,5.6-5.5c0.3-0.4,0.5-0.8,0.6-1.3c0.3-0.6,0.5-1.2,0.7-1.8H184.3z"/>
				<path class="st0" d="M183.8,62.7c-0.2,0.6-0.5,1.2-0.8,1.8c0,0.1-0.1,0.3-0.2,0.4c-1.2,2-2.8,3.6-4.9,4.8
					c-2,1.2-4.4,1.8-6.9,1.8s-4.9-0.6-6.9-1.8c-2.1-1.1-3.7-2.8-4.9-4.8c-0.1-0.1-0.1-0.3-0.2-0.4c-0.3-0.6-0.6-1.2-0.8-1.8h-0.9
					c0.2,0.6,0.4,1.2,0.8,1.8c0.1,0.3,0.3,0.5,0.4,0.8c1.3,2.2,3,3.9,5.2,5.2c2.2,1.3,4.7,1.9,7.4,1.9c2.7,0,5.2-0.6,7.4-1.9
					c2.2-1.2,4-3,5.2-5.2c0.1-0.3,0.3-0.5,0.4-0.8c0.3-0.6,0.5-1.1,0.8-1.8H183.8z M183.8,62.7c-0.2,0.6-0.5,1.2-0.8,1.8
					c0,0.1-0.1,0.3-0.2,0.4c-1.2,2-2.8,3.6-4.9,4.8c-2,1.2-4.4,1.8-6.9,1.8s-4.9-0.6-6.9-1.8c-2.1-1.1-3.7-2.8-4.9-4.8
					c-0.1-0.1-0.1-0.3-0.2-0.4c-0.3-0.6-0.6-1.2-0.8-1.8h-0.9c0.2,0.6,0.4,1.2,0.8,1.8c0.1,0.3,0.3,0.5,0.4,0.8
					c1.3,2.2,3,3.9,5.2,5.2c2.2,1.3,4.7,1.9,7.4,1.9c2.7,0,5.2-0.6,7.4-1.9c2.2-1.2,4-3,5.2-5.2c0.1-0.3,0.3-0.5,0.4-0.8
					c0.3-0.6,0.5-1.1,0.8-1.8H183.8z M183.8,62.7c-0.2,0.6-0.5,1.2-0.8,1.8c0,0.1-0.1,0.3-0.2,0.4c-1.2,2-2.8,3.6-4.9,4.8
					c-2,1.2-4.4,1.8-6.9,1.8s-4.9-0.6-6.9-1.8c-2.1-1.1-3.7-2.8-4.9-4.8c-0.1-0.1-0.1-0.3-0.2-0.4c-0.3-0.6-0.6-1.2-0.8-1.8h-0.9
					c0.2,0.6,0.4,1.2,0.8,1.8c0.1,0.3,0.3,0.5,0.4,0.8c1.3,2.2,3,3.9,5.2,5.2c2.2,1.3,4.7,1.9,7.4,1.9c2.7,0,5.2-0.6,7.4-1.9
					c2.2-1.2,4-3,5.2-5.2c0.1-0.3,0.3-0.5,0.4-0.8c0.3-0.6,0.5-1.1,0.8-1.8H183.8z M183.8,62.7c-0.2,0.6-0.5,1.2-0.8,1.8
					c0,0.1-0.1,0.3-0.2,0.4c-1.2,2-2.8,3.6-4.9,4.8c-2,1.2-4.4,1.8-6.9,1.8s-4.9-0.6-6.9-1.8c-2.1-1.1-3.7-2.8-4.9-4.8
					c-0.1-0.1-0.1-0.3-0.2-0.4c-0.3-0.6-0.6-1.2-0.8-1.8h-0.9c0.2,0.6,0.4,1.2,0.8,1.8c0.1,0.3,0.3,0.5,0.4,0.8
					c1.3,2.2,3,3.9,5.2,5.2c2.2,1.3,4.7,1.9,7.4,1.9c2.7,0,5.2-0.6,7.4-1.9c2.2-1.2,4-3,5.2-5.2c0.1-0.3,0.3-0.5,0.4-0.8
					c0.3-0.6,0.5-1.1,0.8-1.8H183.8z M183.8,62.7c-0.2,0.6-0.5,1.2-0.8,1.8c0,0.1-0.1,0.3-0.2,0.4c-1.2,2-2.8,3.6-4.9,4.8
					c-2,1.2-4.4,1.8-6.9,1.8s-4.9-0.6-6.9-1.8c-2.1-1.1-3.7-2.8-4.9-4.8c-0.1-0.1-0.1-0.3-0.2-0.4c-0.3-0.6-0.6-1.2-0.8-1.8h-0.9
					c0.2,0.6,0.4,1.2,0.8,1.8c0.1,0.3,0.3,0.5,0.4,0.8c1.3,2.2,3,3.9,5.2,5.2c2.2,1.3,4.7,1.9,7.4,1.9c2.7,0,5.2-0.6,7.4-1.9
					c2.2-1.2,4-3,5.2-5.2c0.1-0.3,0.3-0.5,0.4-0.8c0.3-0.6,0.5-1.1,0.8-1.8H183.8z M183.8,62.7c-0.2,0.6-0.5,1.2-0.8,1.8
					c0,0.1-0.1,0.3-0.2,0.4c-1.2,2-2.8,3.6-4.9,4.8c-2,1.2-4.4,1.8-6.9,1.8s-4.9-0.6-6.9-1.8c-2.1-1.1-3.7-2.8-4.9-4.8
					c-0.1-0.1-0.1-0.3-0.2-0.4c-0.3-0.6-0.6-1.2-0.8-1.8h-0.9c0.2,0.6,0.4,1.2,0.8,1.8c0.1,0.3,0.3,0.5,0.4,0.8
					c1.3,2.2,3,3.9,5.2,5.2c2.2,1.3,4.7,1.9,7.4,1.9c2.7,0,5.2-0.6,7.4-1.9c2.2-1.2,4-3,5.2-5.2c0.1-0.3,0.3-0.5,0.4-0.8
					c0.3-0.6,0.5-1.1,0.8-1.8H183.8z M183.8,62.7c-0.2,0.6-0.5,1.2-0.8,1.8c0,0.1-0.1,0.3-0.2,0.4c-1.2,2-2.8,3.6-4.9,4.8
					c-2,1.2-4.4,1.8-6.9,1.8s-4.9-0.6-6.9-1.8c-2.1-1.1-3.7-2.8-4.9-4.8c-0.1-0.1-0.1-0.3-0.2-0.4c-0.3-0.6-0.6-1.2-0.8-1.8h-0.9
					c0.2,0.6,0.4,1.2,0.8,1.8c0.1,0.3,0.3,0.5,0.4,0.8c1.3,2.2,3,3.9,5.2,5.2c2.2,1.3,4.7,1.9,7.4,1.9c2.7,0,5.2-0.6,7.4-1.9
					c2.2-1.2,4-3,5.2-5.2c0.1-0.3,0.3-0.5,0.4-0.8c0.3-0.6,0.5-1.1,0.8-1.8H183.8z M183.8,62.7c-0.2,0.6-0.5,1.2-0.8,1.8
					c0,0.1-0.1,0.3-0.2,0.4c-1.2,2-2.8,3.6-4.9,4.8c-2,1.2-4.4,1.8-6.9,1.8s-4.9-0.6-6.9-1.8c-2.1-1.1-3.7-2.8-4.9-4.8
					c-0.1-0.1-0.1-0.3-0.2-0.4c-0.3-0.6-0.6-1.2-0.8-1.8h-0.9c0.2,0.6,0.4,1.2,0.8,1.8c0.1,0.3,0.3,0.5,0.4,0.8
					c1.3,2.2,3,3.9,5.2,5.2c2.2,1.3,4.7,1.9,7.4,1.9c2.7,0,5.2-0.6,7.4-1.9c2.2-1.2,4-3,5.2-5.2c0.1-0.3,0.3-0.5,0.4-0.8
					c0.3-0.6,0.5-1.1,0.8-1.8H183.8z M183.8,62.7c-0.2,0.6-0.5,1.2-0.8,1.8c0,0.1-0.1,0.3-0.2,0.4c-1.2,2-2.8,3.6-4.9,4.8
					c-2,1.2-4.4,1.8-6.9,1.8s-4.9-0.6-6.9-1.8c-2.1-1.1-3.7-2.8-4.9-4.8c-0.1-0.1-0.1-0.3-0.2-0.4c-0.3-0.6-0.6-1.2-0.8-1.8h-0.9
					c0.2,0.6,0.4,1.2,0.8,1.8c0.1,0.3,0.3,0.5,0.4,0.8c1.3,2.2,3,3.9,5.2,5.2c2.2,1.3,4.7,1.9,7.4,1.9c2.7,0,5.2-0.6,7.4-1.9
					c2.2-1.2,4-3,5.2-5.2c0.1-0.3,0.3-0.5,0.4-0.8c0.3-0.6,0.5-1.1,0.8-1.8H183.8z M185.4,62.7c-0.1,0.6-0.4,1.2-0.7,1.8
					c-0.1,0.4-0.3,0.7-0.5,1c-1.3,2.2-3.1,4-5.4,5.3c-2.3,1.3-4.9,1.9-7.7,1.9s-5.4-0.6-7.7-1.9c-2.3-1.3-4.1-3.1-5.4-5.3
					c-0.2-0.3-0.4-0.7-0.5-1c-0.3-0.6-0.5-1.2-0.7-1.8h-0.9c0.1,0.6,0.4,1.2,0.6,1.8c0.2,0.5,0.5,1,0.8,1.5c1.4,2.4,3.3,4.3,5.7,5.7
					c2.4,1.3,5.2,2,8.1,2c3,0,5.7-0.7,8.2-2c2.4-1.4,4.4-3.3,5.8-5.7c0.3-0.5,0.5-1,0.7-1.5c0.3-0.6,0.5-1.2,0.6-1.8H185.4z
					 M183.8,62.7c-0.2,0.6-0.5,1.2-0.8,1.8c0,0.1-0.1,0.3-0.2,0.4c-1.2,2-2.8,3.6-4.9,4.8c-2,1.2-4.4,1.8-6.9,1.8s-4.9-0.6-6.9-1.8
					c-2.1-1.1-3.7-2.8-4.9-4.8c-0.1-0.1-0.1-0.3-0.2-0.4c-0.3-0.6-0.6-1.2-0.8-1.8h-0.9c0.2,0.6,0.4,1.2,0.8,1.8
					c0.1,0.3,0.3,0.5,0.4,0.8c1.3,2.2,3,3.9,5.2,5.2c2.2,1.3,4.7,1.9,7.4,1.9c2.7,0,5.2-0.6,7.4-1.9c2.2-1.2,4-3,5.2-5.2
					c0.1-0.3,0.3-0.5,0.4-0.8c0.3-0.6,0.5-1.1,0.8-1.8H183.8z M183.8,62.7c-0.2,0.6-0.5,1.2-0.8,1.8c0,0.1-0.1,0.3-0.2,0.4
					c-1.2,2-2.8,3.6-4.9,4.8c-2,1.2-4.4,1.8-6.9,1.8s-4.9-0.6-6.9-1.8c-2.1-1.1-3.7-2.8-4.9-4.8c-0.1-0.1-0.1-0.3-0.2-0.4
					c-0.3-0.6-0.6-1.2-0.8-1.8h-0.9c0.2,0.6,0.4,1.2,0.8,1.8c0.1,0.3,0.3,0.5,0.4,0.8c1.3,2.2,3,3.9,5.2,5.2
					c2.2,1.3,4.7,1.9,7.4,1.9c2.7,0,5.2-0.6,7.4-1.9c2.2-1.2,4-3,5.2-5.2c0.1-0.3,0.3-0.5,0.4-0.8c0.3-0.6,0.5-1.1,0.8-1.8H183.8z
					 M183.8,62.7c-0.2,0.6-0.5,1.2-0.8,1.8c0,0.1-0.1,0.3-0.2,0.4c-1.2,2-2.8,3.6-4.9,4.8c-2,1.2-4.4,1.8-6.9,1.8s-4.9-0.6-6.9-1.8
					c-2.1-1.1-3.7-2.8-4.9-4.8c-0.1-0.1-0.1-0.3-0.2-0.4c-0.3-0.6-0.6-1.2-0.8-1.8h-0.9c0.2,0.6,0.4,1.2,0.8,1.8
					c0.1,0.3,0.3,0.5,0.4,0.8c1.3,2.2,3,3.9,5.2,5.2c2.2,1.3,4.7,1.9,7.4,1.9c2.7,0,5.2-0.6,7.4-1.9c2.2-1.2,4-3,5.2-5.2
					c0.1-0.3,0.3-0.5,0.4-0.8c0.3-0.6,0.5-1.1,0.8-1.8H183.8z M183.8,62.7c-0.2,0.6-0.5,1.2-0.8,1.8c0,0.1-0.1,0.3-0.2,0.4
					c-1.2,2-2.8,3.6-4.9,4.8c-2,1.2-4.4,1.8-6.9,1.8s-4.9-0.6-6.9-1.8c-2.1-1.1-3.7-2.8-4.9-4.8c-0.1-0.1-0.1-0.3-0.2-0.4
					c-0.3-0.6-0.6-1.2-0.8-1.8h-0.9c0.2,0.6,0.4,1.2,0.8,1.8c0.1,0.3,0.3,0.5,0.4,0.8c1.3,2.2,3,3.9,5.2,5.2
					c2.2,1.3,4.7,1.9,7.4,1.9c2.7,0,5.2-0.6,7.4-1.9c2.2-1.2,4-3,5.2-5.2c0.1-0.3,0.3-0.5,0.4-0.8c0.3-0.6,0.5-1.1,0.8-1.8H183.8z
					 M183.8,62.7c-0.2,0.6-0.5,1.2-0.8,1.8c0,0.1-0.1,0.3-0.2,0.4c-1.2,2-2.8,3.6-4.9,4.8c-2,1.2-4.4,1.8-6.9,1.8s-4.9-0.6-6.9-1.8
					c-2.1-1.1-3.7-2.8-4.9-4.8c-0.1-0.1-0.1-0.3-0.2-0.4c-0.3-0.6-0.6-1.2-0.8-1.8h-0.9c0.2,0.6,0.4,1.2,0.8,1.8
					c0.1,0.3,0.3,0.5,0.4,0.8c1.3,2.2,3,3.9,5.2,5.2c2.2,1.3,4.7,1.9,7.4,1.9c2.7,0,5.2-0.6,7.4-1.9c2.2-1.2,4-3,5.2-5.2
					c0.1-0.3,0.3-0.5,0.4-0.8c0.3-0.6,0.5-1.1,0.8-1.8H183.8z M183.8,62.7c-0.2,0.6-0.5,1.2-0.8,1.8c0,0.1-0.1,0.3-0.2,0.4
					c-1.2,2-2.8,3.6-4.9,4.8c-2,1.2-4.4,1.8-6.9,1.8s-4.9-0.6-6.9-1.8c-2.1-1.1-3.7-2.8-4.9-4.8c-0.1-0.1-0.1-0.3-0.2-0.4
					c-0.3-0.6-0.6-1.2-0.8-1.8h-0.9c0.2,0.6,0.4,1.2,0.8,1.8c0.1,0.3,0.3,0.5,0.4,0.8c1.3,2.2,3,3.9,5.2,5.2
					c2.2,1.3,4.7,1.9,7.4,1.9c2.7,0,5.2-0.6,7.4-1.9c2.2-1.2,4-3,5.2-5.2c0.1-0.3,0.3-0.5,0.4-0.8c0.3-0.6,0.5-1.1,0.8-1.8H183.8z
					 M183.8,62.7c-0.2,0.6-0.5,1.2-0.8,1.8c0,0.1-0.1,0.3-0.2,0.4c-1.2,2-2.8,3.6-4.9,4.8c-2,1.2-4.4,1.8-6.9,1.8s-4.9-0.6-6.9-1.8
					c-2.1-1.1-3.7-2.8-4.9-4.8c-0.1-0.1-0.1-0.3-0.2-0.4c-0.3-0.6-0.6-1.2-0.8-1.8h-0.9c0.2,0.6,0.4,1.2,0.8,1.8
					c0.1,0.3,0.3,0.5,0.4,0.8c1.3,2.2,3,3.9,5.2,5.2c2.2,1.3,4.7,1.9,7.4,1.9c2.7,0,5.2-0.6,7.4-1.9c2.2-1.2,4-3,5.2-5.2
					c0.1-0.3,0.3-0.5,0.4-0.8c0.3-0.6,0.5-1.1,0.8-1.8H183.8z M183.8,62.7c-0.2,0.6-0.5,1.2-0.8,1.8c0,0.1-0.1,0.3-0.2,0.4
					c-1.2,2-2.8,3.6-4.9,4.8c-2,1.2-4.4,1.8-6.9,1.8s-4.9-0.6-6.9-1.8c-2.1-1.1-3.7-2.8-4.9-4.8c-0.1-0.1-0.1-0.3-0.2-0.4
					c-0.3-0.6-0.6-1.2-0.8-1.8h-0.9c0.2,0.6,0.4,1.2,0.8,1.8c0.1,0.3,0.3,0.5,0.4,0.8c1.3,2.2,3,3.9,5.2,5.2
					c2.2,1.3,4.7,1.9,7.4,1.9c2.7,0,5.2-0.6,7.4-1.9c2.2-1.2,4-3,5.2-5.2c0.1-0.3,0.3-0.5,0.4-0.8c0.3-0.6,0.5-1.1,0.8-1.8H183.8z
					 M183.8,62.7c-0.2,0.6-0.5,1.2-0.8,1.8c0,0.1-0.1,0.3-0.2,0.4c-1.2,2-2.8,3.6-4.9,4.8c-2,1.2-4.4,1.8-6.9,1.8s-4.9-0.6-6.9-1.8
					c-2.1-1.1-3.7-2.8-4.9-4.8c-0.1-0.1-0.1-0.3-0.2-0.4c-0.3-0.6-0.6-1.2-0.8-1.8h-0.9c0.2,0.6,0.4,1.2,0.8,1.8
					c0.1,0.3,0.3,0.5,0.4,0.8c1.3,2.2,3,3.9,5.2,5.2c2.2,1.3,4.7,1.9,7.4,1.9c2.7,0,5.2-0.6,7.4-1.9c2.2-1.2,4-3,5.2-5.2
					c0.1-0.3,0.3-0.5,0.4-0.8c0.3-0.6,0.5-1.1,0.8-1.8H183.8z M183.8,62.7c-0.2,0.6-0.5,1.2-0.8,1.8c0,0.1-0.1,0.3-0.2,0.4
					c-1.2,2-2.8,3.6-4.9,4.8c-2,1.2-4.4,1.8-6.9,1.8s-4.9-0.6-6.9-1.8c-2.1-1.1-3.7-2.8-4.9-4.8c-0.1-0.1-0.1-0.3-0.2-0.4
					c-0.3-0.6-0.6-1.2-0.8-1.8h-0.9c0.2,0.6,0.4,1.2,0.8,1.8c0.1,0.3,0.3,0.5,0.4,0.8c1.3,2.2,3,3.9,5.2,5.2
					c2.2,1.3,4.7,1.9,7.4,1.9c2.7,0,5.2-0.6,7.4-1.9c2.2-1.2,4-3,5.2-5.2c0.1-0.3,0.3-0.5,0.4-0.8c0.3-0.6,0.5-1.1,0.8-1.8H183.8z"
					/>
			</g>
			<g>
				<path class="st0" d="M194.5,62.7V73h1.4V62.7H194.5z"/>
				<path class="st0" d="M195.5,62.7v9.9H195v-9.9h-0.9v10.7h2.4V62.7H195.5z"/>
			</g>
			<g>
				<path class="st0" d="M225,64.4c-0.1-0.6-0.2-1.3-0.5-1.8h-1.6c0.3,0.5,0.5,1.1,0.6,1.8c0,0.4,0.1,0.7,0.1,1
					c0,1.9-0.8,3.4-2.3,4.6c-1.5,1.2-3.8,1.8-6.8,1.8c-2,0-3.9-0.4-5.7-1.1c-1.8-0.7-3.2-1.6-4.2-2.8l-0.8,1c1.1,1.3,2.6,2.3,4.5,3
					c1.9,0.8,4,1.2,6.2,1.2c2.3,0,4.3-0.4,5.8-1c1.6-0.7,2.8-1.6,3.5-2.8c0.8-1.2,1.1-2.5,1.1-3.9C225,65.1,225,64.8,225,64.4z"/>
				<path class="st0" d="M225.4,64.4c0-0.6-0.2-1.3-0.4-1.8h-1c0.3,0.5,0.4,1.1,0.5,1.8c0.1,0.3,0.1,0.6,0.1,1
					c0,1.3-0.4,2.5-1.1,3.6c-0.7,1.1-1.8,2-3.3,2.6c-1.5,0.6-3.4,1-5.7,1c-2.1,0-4.2-0.4-6-1.1c-1.8-0.7-3.1-1.6-4.1-2.6l0.3-0.3
					c1,1,2.3,1.9,4,2.5c1.8,0.8,3.8,1.1,5.9,1.1c3.1,0,5.5-0.6,7.1-1.9c1.6-1.3,2.5-2.9,2.5-4.9c0-0.4,0-0.7-0.1-1
					c-0.1-0.6-0.3-1.3-0.6-1.8h-1.1c0.4,0.5,0.6,1.1,0.8,1.8c0.1,0.3,0.1,0.7,0.1,1c0,1.8-0.7,3.1-2.1,4.2c-1.4,1.1-3.6,1.7-6.5,1.7
					c-2,0-3.8-0.4-5.6-1c-1.7-0.7-3-1.6-4-2.7l-0.4-0.4l-1.3,1.8l0.2,0.3c1.1,1.3,2.7,2.3,4.7,3.1c2,0.8,4.2,1.2,6.4,1.2
					c2.4,0,4.4-0.4,6-1.1c1.6-0.7,2.9-1.7,3.7-2.9c0.8-1.3,1.2-2.6,1.2-4.1C225.5,65.1,225.5,64.8,225.4,64.4z"/>
			</g>
			<g>
				<path class="st0" d="M238.2,62.7V73h1.4V62.7H238.2z"/>
				<path class="st0" d="M239.1,62.7v9.9h-0.5v-9.9h-0.9v10.7h2.3V62.7H239.1z"/>
			</g>
			<g>
				<path class="st0" d="M257.7,71.6v-9h-1.5V73h20.3v-1.3H257.7z"/>
				<path class="st0" d="M258.2,71.2v-8.5h-0.9v9.4h18.8v0.5h-19.4v-9.9h-0.9v10.7H277v-2.2H258.2z"/>
			</g>
			<g>
				<path class="st0" d="M305.1,64.4l-0.8-1.8h-1.5l0.1,0.3H286l0.1-0.3h-1.5l-0.8,1.8l-3.9,8.5h1.6l3.9-8.5l0.1-0.3h18l0.1,0.3
					l3.9,8.5h1.6L305.1,64.4z"/>
				<path class="st0" d="M303.2,62.7h-17.6l-0.3,0.7h18.3L303.2,62.7z M303.2,62.7h-17.6l-0.3,0.7h18.3L303.2,62.7z M303.2,62.7
					h-17.6l-0.3,0.7h18.3L303.2,62.7z M303.2,62.7h-17.6l-0.3,0.7h18.3L303.2,62.7z M303.2,62.7h-17.6l-0.3,0.7h18.3L303.2,62.7z
					 M303.2,62.7h-17.6l-0.3,0.7h18.3L303.2,62.7z M303.2,62.7h-17.6l-0.3,0.7h18.3L303.2,62.7z M303.2,62.7h-17.6l-0.3,0.7h18.3
					L303.2,62.7z M303.2,62.7h-17.6l-0.3,0.7h18.3L303.2,62.7z M303.2,62.7h-17.6l-0.3,0.7h18.3L303.2,62.7z M303.2,62.7h-17.6
					l-0.3,0.7h18.3L303.2,62.7z M303.2,62.7h-17.6l-0.3,0.7h18.3L303.2,62.7z M303.2,62.7h-17.6l-0.3,0.7h18.3L303.2,62.7z
					 M303.2,62.7h-17.6l-0.3,0.7h18.3L303.2,62.7z M303.2,62.7h-17.6l-0.3,0.7h18.3L303.2,62.7z M303.2,62.7h-17.6l-0.3,0.7h18.3
					L303.2,62.7z M303.2,62.7h-17.6l-0.3,0.7h18.3L303.2,62.7z M305.5,64.4l-0.8-1.8h-1l0.8,1.8l3.8,8.1h-0.6l-3.7-8.1l-0.3-0.7
					h-18.6l-0.3,0.7l-3.7,8.1h-0.6l3.8-8.1l0.8-1.8h-1l-0.8,1.8l-4.2,8.9h2.6l4-8.8h17.4l4,8.8h2.6L305.5,64.4z M303.2,62.7h-17.6
					l-0.3,0.7h18.3L303.2,62.7z M303.2,62.7h-17.6l-0.3,0.7h18.3L303.2,62.7z M303.2,62.7h-17.6l-0.3,0.7h18.3L303.2,62.7z
					 M303.2,62.7h-17.6l-0.3,0.7h18.3L303.2,62.7z M303.2,62.7h-17.6l-0.3,0.7h18.3L303.2,62.7z M303.2,62.7h-17.6l-0.3,0.7h18.3
					L303.2,62.7z M303.2,62.7h-17.6l-0.3,0.7h18.3L303.2,62.7z M303.2,62.7h-17.6l-0.3,0.7h18.3L303.2,62.7z M303.2,62.7h-17.6
					l-0.3,0.7h18.3L303.2,62.7z M303.2,62.7h-17.6l-0.3,0.7h18.3L303.2,62.7z M303.2,62.7h-17.6l-0.3,0.7h18.3L303.2,62.7z
					 M303.2,62.7h-17.6l-0.3,0.7h18.3L303.2,62.7z M303.2,62.7h-17.6l-0.3,0.7h18.3L303.2,62.7z M303.2,62.7h-17.6l-0.3,0.7h18.3
					L303.2,62.7z M303.2,62.7h-17.6l-0.3,0.7h18.3L303.2,62.7z M303.2,62.7h-17.6l-0.3,0.7h18.3L303.2,62.7z M303.2,62.7h-17.6
					l-0.3,0.7h18.3L303.2,62.7z M303.2,62.7h-17.6l-0.3,0.7h18.3L303.2,62.7z"/>
			</g>
			<g>
				<path class="st0" d="M332.3,62.7l-1,1.8l-1.4,2.5l-1.4-2.5l-1-1.8h-1.5l1,1.8l2.5,4.4h0.8l2.5-4.4l1-1.8H332.3z M343.5,62.7v1.8
					l0,8.5h1.4V62.7H343.5z M314.9,62.7V73h1.4V62.7H314.9z"/>
				<path class="st0" d="M331.8,62.7l-1,1.8l-0.9,1.6l-0.9-1.6l-1-1.8h-1l1,1.8l2,3.4l2-3.4l1-1.8H331.8z M333.3,62.7l-1,1.8
					l-2.3,3.9h-0.3l-2.3-3.9l-1-1.8h-1.1l1,1.8l2.8,4.8h1.3l2.8-4.8l1-1.8H333.3z M345.3,64.4v-1.8h-0.9v1.8l0,8.1h-0.5v-9.9H343
					v10.7h2.3L345.3,64.4z M315.8,62.7v9.9h-0.5v-9.9h-0.9v10.7h2.3V62.7H315.8z"/>
			</g>
		</g>
		<path class="st0" d="M159,64.4h-13.3v-1.8h12.6C158.4,63.3,158.7,63.9,159,64.4z"/>
		<path class="st0" d="M196.4,62.7v1.8H183c0.3-0.6,0.6-1.2,0.8-1.8H196.4z"/>
		<path class="st0" d="M240,62.7v1.8h-17c-0.1-0.7-0.4-1.3-0.8-1.8H240z"/>
		<rect x="255.8" y="62.7" class="st0" width="2.4" height="1.8"/>
		<polygon class="st0" points="304.7,62.7 305.5,64.4 283.2,64.4 284,62.7 		"/>
		<polygon class="st0" points="327.9,62.7 328.9,64.4 314.4,64.4 314.4,62.7 		"/>
		<polygon class="st0" points="345.3,62.7 345.3,64.4 330.8,64.4 331.8,62.7 		"/>
		<path class="st0" d="M157,59.3c0,0.3,0.1,0.6,0.1,0.9h-11.1v-0.9H157z"/>
		<path class="st0" d="M196,59.3v0.9h-11.1c0.1-0.3,0.1-0.6,0.1-0.9H196z"/>
		<path class="st0" d="M257.7,59.3v0.9h-37.6c-0.2-0.1-0.5-0.2-0.7-0.3c-0.5-0.2-1.1-0.4-1.8-0.6H257.7z"/>
		<polygon class="st0" points="286,59.3 287.5,59.3 287.1,60.2 285.6,60.2 		"/>
		<polygon class="st0" points="316.2,59.3 316.2,60.2 301.6,60.2 301.2,59.3 		"/>
		<polygon class="st0" points="335.6,59.3 335.1,60.2 324.6,60.2 324.1,59.3 		"/>
		<rect x="343.5" y="59.3" class="st0" width="6.5" height="0.9"/>
	</g>
	<g>
		<polygon class="st1" points="119.2,101.5 113.5,118.1 113.3,119 103.1,119 102.8,118.1 97.7,103.5 92.6,118.1 92.3,119 82.2,119 
			81.8,118.1 76.2,101.5 77.7,101.5 83.3,118.1 91.2,118.1 97,101.5 98.4,101.5 104.2,118.1 112.1,118.1 117.8,101.5 		"/>
		<path class="st1" d="M198.3,101.5V119h-11.1c0.1-0.3,0.1-0.6,0.2-0.9c0-0.5,0.1-1,0.1-1.5c0-2.6-0.6-5-1.8-7.1
			c-1.3-2.1-2.9-3.8-5.1-5c-2.1-1.2-4.5-1.8-7.1-1.8c-2.7,0-5.1,0.6-7.2,1.8c-2.1,1.2-3.8,2.9-5,5c-1.3,2.1-1.9,4.5-1.9,7.1
			c0,0.5,0,1,0.1,1.5c0,0.3,0.1,0.6,0.1,0.9h-11.1v-2h-21.1v2h-1.4v-17.5h1.4v14.1h21.1v-14.1h1.4v16.6h8.1c-0.1-0.5-0.1-1-0.1-1.5
			c0-2.9,0.7-5.5,2-7.8c1.3-2.3,3.2-4.2,5.5-5.5c2.4-1.3,5-2,8-2c2.9,0,5.5,0.7,7.9,2c2.4,1.3,4.2,3.2,5.6,5.5c1.3,2.3,2,4.9,2,7.8
			c0,0.5,0,1-0.1,1.5h8v-16.6H198.3z"/>
		<path class="st1" d="M260.1,102.9v12.8h16.3v1.3h-16.3v2h-37.6c-0.2-0.1-0.5-0.2-0.7-0.3c-0.5-0.2-1.1-0.4-1.8-0.6
			c-0.8-0.3-1.9-0.5-3-0.8c-2.2-0.5-3.9-1.1-5.3-1.6c-1.3-0.5-2.4-1.3-3.3-2.4c-0.9-1.1-1.4-2.5-1.4-4.3c0-1.4,0.4-2.7,1.2-3.9
			c0.7-1.2,1.9-2.1,3.4-2.8c1.5-0.7,3.4-1.1,5.7-1.1c1.7,0,3.3,0.3,4.8,0.7c1.6,0.5,2.9,1.2,4.1,2l-0.7,1.1
			c-1.1-0.9-2.5-1.5-3.9-1.9c-1.5-0.5-2.9-0.7-4.3-0.7c-2.9,0-5.1,0.6-6.6,1.8c-1.5,1.2-2.3,2.8-2.3,4.6c0,1.5,0.4,2.6,1.2,3.5
			s1.8,1.5,3,2c1.2,0.4,2.8,0.9,4.8,1.4c2.2,0.5,3.9,1.1,5.2,1.6c0.4,0.1,0.8,0.3,1.1,0.5h16.7v-15.2h-11v-1.3h23.5v1.3h-11v15.2
			h16.7v-16.6h19.7v1.3H260.1z"/>
	</g>
	<g>
		<g>
			<polygon class="st1" points="92,121.4 91.4,123.2 88.3,132.2 86.1,132.2 83.1,123.2 82.5,121.4 84.9,121.4 85.5,123.2 
				87.2,128.3 89,123.2 89.6,121.4 			"/>
		</g>
		<g>
			<polygon class="st1" points="127.8,121.4 127.8,132.2 125.5,132.2 125.5,123.2 112.3,123.2 109.3,132.2 107.2,132.2 104.1,123.2 
				103.4,121.4 105.8,121.4 106.4,123.2 108.2,128.3 109.9,123.2 110.5,121.4 			"/>
		</g>
		<g>
			<path class="st1" d="M242.4,121.4v10.7h-2.3v-8.9h-12.3c0.1,0.3,0.1,0.6,0.1,1c0,1.5-0.4,2.9-1.2,4.1c-0.8,1.3-2,2.2-3.7,2.9
				c-1.6,0.7-3.7,1.1-6,1.1c-2.2,0-4.4-0.4-6.4-1.2c-2-0.8-3.6-1.9-4.7-3.1l-0.2-0.3l1.3-1.8l0.4,0.4c1,1.1,2.3,2,4,2.7
				c1.8,0.7,3.6,1,5.6,1c2.9,0,5.1-0.6,6.5-1.7c1.4-1.1,2.1-2.5,2.1-4.2c0-0.4,0-0.7-0.1-1c-0.1-0.7-0.4-1.3-0.8-1.8H242.4z"/>
		</g>
		<g>
			<polygon class="st1" points="279.4,129.9 279.4,132.2 258.2,132.2 258.2,121.4 260.6,121.4 260.6,129.9 			"/>
		</g>
		<g>
			<polygon class="st1" points="312,132.2 309.5,132.2 305.5,123.4 288,123.4 284,132.2 281.4,132.2 285.6,123.2 286.4,121.4 
				307.1,121.4 307.9,123.2 			"/>
		</g>
		<g>
			<polygon class="st1" points="345.4,132.2 345.4,123.2 335.6,123.2 332.9,128 331.6,128 328.8,123.2 319.1,123.2 319.1,132.2 
				316.8,132.2 316.8,121.4 330.3,121.4 331.3,123.2 332.2,124.8 333.2,123.2 334.2,121.4 347.7,121.4 347.7,123.2 347.7,132.2 			
				"/>
		</g>
	</g>
	<path class="st1" d="M198.8,121.4v10.7h-2.4v-8.9H188c-0.2,0.5-0.4,1-0.7,1.5c-1.4,2.4-3.3,4.3-5.8,5.7c-2.4,1.3-5.1,2-8.1,2
		c-3,0-5.7-0.7-8.1-2c-2.4-1.4-4.4-3.3-5.7-5.7c-0.3-0.5-0.5-1-0.8-1.5h-8.4v8.9H148v-10.7h12.6c0.2,0.6,0.5,1.2,0.8,1.8
		c0,0.1,0.1,0.3,0.2,0.4c1.2,2,2.8,3.7,4.9,4.8c2,1.2,4.4,1.8,6.9,1.8c2.5,0,4.9-0.6,6.9-1.8c2.1-1.1,3.7-2.8,4.9-4.8
		c0.1-0.1,0.1-0.3,0.2-0.4c0.3-0.6,0.6-1.2,0.8-1.8H198.8z"/>
	<polygon class="st1" points="352.3,118.1 352.3,119 345.8,119 345.8,118.1 345.8,104.5 338,118.1 337.4,119 327,119 326.4,118.1 
		318.6,104.6 318.6,119 304,119 303.6,118.1 296.7,103.2 289.9,118.1 289.5,119 287.9,119 288.4,118.1 296,101.5 297.4,101.5 
		305.1,118.1 317.2,118.1 317.2,101.5 318.4,101.5 327.9,118.1 336.5,118.1 346,101.5 347.2,101.5 347.2,118.1 	"/>
	<g>
		<polygon class="st2" points="547.8,96.1 542.2,112.6 541.9,113.5 531.7,113.5 531.4,112.6 526.3,98.1 521.3,112.6 520.9,113.5 
			510.8,113.5 510.5,112.6 504.8,96.1 506.3,96.1 512,112.6 519.8,112.6 525.6,96.1 527.1,96.1 532.8,112.6 540.7,112.6 546.4,96.1 
					"/>
		<path class="st2" d="M626.9,96.1v17.5h-11.1c0.1-0.3,0.1-0.6,0.2-0.9c0-0.5,0.1-1,0.1-1.5c0-2.6-0.6-5-1.8-7.1
			c-1.3-2.1-2.9-3.8-5.1-5c-2.1-1.2-4.5-1.8-7.1-1.8c-2.7,0-5.1,0.6-7.2,1.8c-2.1,1.2-3.8,2.9-5,5c-1.3,2.1-1.9,4.5-1.9,7.1
			c0,0.5,0,1,0.1,1.5c0,0.3,0.1,0.6,0.1,0.9h-11.1v-2H556v2h-1.4V96.1h1.4v14.1h21.1V96.1h1.4v16.6h8.1c-0.1-0.5-0.1-1-0.1-1.5
			c0-2.9,0.7-5.5,2-7.8c1.3-2.3,3.2-4.2,5.5-5.5c2.4-1.3,5-2,8-2c2.9,0,5.5,0.7,7.9,2c2.4,1.3,4.2,3.2,5.6,5.5c1.3,2.3,2,4.9,2,7.8
			c0,0.5,0,1-0.1,1.5h8V96.1H626.9z"/>
		<path class="st2" d="M688.7,97.4v12.8H705v1.3h-16.3v2h-37.6c-0.2-0.1-0.5-0.2-0.7-0.3c-0.5-0.2-1.1-0.4-1.8-0.6
			c-0.8-0.3-1.9-0.5-3-0.8c-2.2-0.5-3.9-1.1-5.3-1.6c-1.3-0.5-2.4-1.3-3.3-2.4c-0.9-1.1-1.4-2.5-1.4-4.3c0-1.4,0.4-2.7,1.2-3.9
			c0.7-1.2,1.9-2.1,3.4-2.8c1.5-0.7,3.4-1.1,5.7-1.1c1.7,0,3.3,0.3,4.8,0.7c1.6,0.5,2.9,1.2,4.1,2l-0.7,1.1
			c-1.1-0.9-2.5-1.5-3.9-1.9c-1.5-0.5-2.9-0.7-4.3-0.7c-2.9,0-5.1,0.6-6.6,1.8c-1.5,1.2-2.3,2.8-2.3,4.6c0,1.5,0.4,2.6,1.2,3.5
			s1.8,1.5,3,2c1.2,0.4,2.8,0.9,4.8,1.4c2.2,0.5,3.9,1.1,5.2,1.6c0.4,0.1,0.8,0.3,1.1,0.5h16.7V97.4h-11v-1.3h23.5v1.3h-11v15.2
			h16.7V96.1h19.7v1.3H688.7z"/>
	</g>
	<g>
		<g>
			<polygon class="st2" points="520.6,116 520,117.8 516.9,126.7 514.7,126.7 511.7,117.8 511.1,116 513.5,116 514.1,117.8 
				515.9,122.8 517.6,117.8 518.3,116 			"/>
		</g>
		<g>
			<polygon class="st2" points="556.4,116 556.4,126.7 554.1,126.7 554.1,117.8 540.9,117.8 537.9,126.7 535.8,126.7 532.7,117.8 
				532.1,116 534.4,116 535,117.8 536.8,122.8 538.5,117.8 539.2,116 			"/>
		</g>
		<g>
			<path class="st2" d="M671,116v10.7h-2.3v-8.9h-12.3c0.1,0.3,0.1,0.6,0.1,1c0,1.5-0.4,2.9-1.2,4.1c-0.8,1.3-2,2.2-3.7,2.9
				c-1.6,0.7-3.7,1.1-6,1.1c-2.2,0-4.4-0.4-6.4-1.2c-2-0.8-3.6-1.9-4.7-3.1l-0.2-0.3l1.3-1.8l0.4,0.4c1,1.1,2.3,2,4,2.7
				c1.8,0.7,3.6,1,5.6,1c2.9,0,5.1-0.6,6.5-1.7s2.1-2.5,2.1-4.2c0-0.4,0-0.7-0.1-1c-0.1-0.7-0.4-1.3-0.8-1.8H671z"/>
		</g>
		<g>
			<polygon class="st2" points="708,124.5 708,126.7 686.8,126.7 686.8,116 689.2,116 689.2,124.5 			"/>
		</g>
		<g>
			<polygon class="st2" points="740.7,126.7 738.1,126.7 734.1,117.9 716.7,117.9 712.6,126.7 710,126.7 714.2,117.8 715,116 
				735.7,116 736.5,117.8 			"/>
		</g>
		<g>
			<polygon class="st2" points="774,126.7 774,117.8 764.2,117.8 761.5,122.6 760.2,122.6 757.4,117.8 747.7,117.8 747.7,126.7 
				745.4,126.7 745.4,116 758.9,116 759.9,117.8 760.8,119.4 761.8,117.8 762.8,116 776.3,116 776.3,117.8 776.3,126.7 			"/>
		</g>
	</g>
	<path class="st2" d="M627.4,116v10.7H625v-8.9h-8.4c-0.2,0.5-0.4,1-0.7,1.5c-1.4,2.4-3.3,4.3-5.8,5.7c-2.4,1.3-5.1,2-8.1,2
		c-3,0-5.7-0.7-8.1-2c-2.4-1.4-4.4-3.3-5.7-5.7c-0.3-0.5-0.5-1-0.8-1.5H579v8.9h-2.3V116h12.6c0.2,0.6,0.5,1.2,0.8,1.8
		c0,0.1,0.1,0.3,0.2,0.4c1.2,2,2.8,3.7,4.9,4.8c2,1.2,4.4,1.8,6.9,1.8c2.5,0,4.9-0.6,6.9-1.8c2.1-1.1,3.7-2.8,4.9-4.8
		c0.1-0.1,0.1-0.3,0.2-0.4c0.3-0.6,0.6-1.2,0.8-1.8H627.4z"/>
	<polygon class="st2" points="780.9,112.6 780.9,113.5 774.4,113.5 774.4,112.6 774.4,99.1 766.6,112.6 766,113.5 755.6,113.5 
		755.1,112.6 747.2,99.1 747.2,113.5 732.6,113.5 732.2,112.6 725.4,97.8 718.5,112.6 718.1,113.5 716.6,113.5 717,112.6 
		724.6,96.1 726.1,96.1 733.7,112.6 745.8,112.6 745.8,96.1 747,96.1 756.5,112.6 765.1,112.6 774.6,96.1 775.8,96.1 775.8,112.6 	
		"/>
	<polygon class="st2" points="300.5,183.6 294.8,200.3 294.5,201.2 284.3,201.2 284,200.3 278.9,185.6 273.9,200.3 273.5,201.2 
		263.3,201.2 263,200.3 257.7,184.5 252,184.5 251.8,183.6 258.9,183.6 264.5,200.3 272.4,200.3 278.2,183.6 279.7,183.6 
		285.5,200.3 293.4,200.3 299.1,183.6 	"/>
	<polygon class="st2" points="294.2,203.6 293.6,205.4 290.6,214.4 288.4,214.4 285.3,205.4 284.7,203.6 287,203.6 287.7,205.4 
		289.4,210.5 291.2,205.4 291.8,203.6 	"/>
	<polygon class="st2" points="273.2,203.6 272.6,205.4 269.5,214.4 267.3,214.4 264.3,205.4 263.7,203.6 266.1,203.6 266.7,205.4 
		268.4,210.4 270.2,205.4 270.8,203.6 	"/>
	<g>
		<path class="st3" d="M752,217.6l-34.5,34.5c-2-2-5.1-2-7.1,0l-34.5-34.5c2-2,2-5.1,0-7.1l34.5-34.5c2,2,5.1,2,7.1,0l34.5,34.5
			C750.1,212.5,750.1,215.6,752,217.6z"/>
		<path class="st3" d="M737.1,243.3h-46.3c0-3.5-2.8-6.3-6.3-6.3v-46.3c3.5,0,6.3-2.8,6.3-6.3h46.3c0,3.5,2.8,6.3,6.3,6.3v46.3
			C739.9,237.1,737.1,239.9,737.1,243.3z"/>
		<path class="st3" d="M750.1,203.8l-17.8,43.1c-1.3,3.1-4.9,4.6-8,3.3l-43.1-17.8c-3.1-1.3-4.6-4.9-3.3-8l17.8-43.1
			c1.3-3.1,4.9-4.6,8-3.3l43.1,17.8C749.9,197.1,751.4,200.7,750.1,203.8z"/>
		<path class="st3" d="M747.8,231.8l-45.1,18.7c-2.5-1.1-4-1.6-6.5-2.7l-18.7-45.1c1.1-2.5,1.6-4,2.7-6.5l45.1-18.7
			c2.5,1.1,4,1.6,6.5,2.7l18.7,45.1C749.4,227.9,748.8,229.3,747.8,231.8z"/>
	</g>
	<polygon points="736,201 730.4,217.6 730.1,218.5 719.9,218.5 719.6,217.6 714.5,203 709.4,217.6 709.1,218.5 698.9,218.5 
		698.6,217.6 693.2,201.9 687.5,201.9 687.3,201 694.4,201 700.1,217.6 708,217.6 713.8,201 715.2,201 721,217.6 728.9,217.6 
		734.6,201 	"/>
	<polygon points="729.8,220.9 729.1,222.7 726.1,231.7 724,231.7 720.9,222.7 720.2,220.9 722.6,220.9 723.2,222.7 725,227.8 
		726.7,222.7 727.3,220.9 	"/>
	<polygon points="708.8,220.9 708.1,222.7 705,231.7 702.9,231.7 699.8,222.7 699.2,220.9 701.7,220.9 702.3,222.7 704,227.8 
		705.7,222.7 706.4,220.9 	"/>
	<g>
		<g>
			<path class="st2" d="M512,65.8l-5.6-16.6h-1.5l5.7,16.6l0.3,0.9h1.5L512,65.8z M546.4,49.3l-5.7,16.6l-0.3,0.9h1.5l0.3-0.9
				l5.7-16.6H546.4z M532.8,65.8l-5.8-16.6h-1.4l-5.8,16.6l-0.3,0.9h1.4l0.3-0.9l5-14.6l5.1,14.6l0.3,0.9h1.4L532.8,65.8z"/>
			<path class="st2" d="M577.1,49.3v14.1H556V49.3h-1.4v17.5h1.4v-2h21.1v2h1.4V49.3H577.1z"/>
			<path class="st2" d="M615.5,56.5c-1.4-2.3-3.2-4.2-5.6-5.5c-2.4-1.3-5-2-7.9-2c-2.9,0-5.6,0.7-7.9,2c-2.4,1.3-4.2,3.1-5.5,5.5
				c-1.4,2.3-2,4.9-2,7.8c0,0.5,0,1,0.1,1.5c0,0.3,0,0.6,0.1,0.9h1.5c-0.1-0.3-0.1-0.6-0.1-0.9c0-0.5-0.1-1-0.1-1.5
				c0-2.6,0.6-5,1.9-7.1c1.2-2.1,2.9-3.8,5-5c2.1-1.2,4.5-1.8,7.2-1.8c2.6,0,5,0.6,7.2,1.8c2.1,1.2,3.8,2.9,5.1,5
				c1.2,2.1,1.8,4.5,1.8,7.1c0,0.5,0,1-0.1,1.5c0,0.3-0.1,0.6-0.1,0.9h1.5c0.1-0.3,0.1-0.6,0.1-0.9c0.1-0.5,0.1-1,0.1-1.5
				C617.5,61.4,616.8,58.8,615.5,56.5z"/>
			<path class="st2" d="M625.5,49.3v17.5h1.5V49.3H625.5z"/>
			<path class="st2" d="M639.3,52.2c1.5-1.2,3.7-1.8,6.6-1.8c1.4,0,2.8,0.2,4.3,0.7c1.4,0.4,2.8,1.1,3.9,1.9l0.7-1.1
				c-1.1-0.9-2.5-1.5-4.1-2c-1.6-0.5-3.2-0.7-4.8-0.7c-2.3,0-4.2,0.4-5.7,1.1c-1.5,0.7-2.7,1.6-3.4,2.8c-0.8,1.2-1.1,2.5-1.1,3.9
				c0,1.8,0.5,3.2,1.4,4.3c0.9,1.1,2,1.8,3.3,2.4c1.3,0.5,3.1,1,5.3,1.6c1.1,0.3,2.2,0.6,3,0.8c0.6,0.2,1.3,0.4,1.8,0.6
				c0.3,0.1,0.5,0.2,0.7,0.3h2.6c-0.4-0.4-0.8-0.6-1.3-0.9c-0.4-0.2-0.8-0.4-1.1-0.5c-1.3-0.5-3-1-5.2-1.6c-2-0.5-3.6-1-4.8-1.4
				c-1.2-0.5-2.2-1.1-3-2c-0.8-0.9-1.2-2-1.2-3.5C637,55,637.8,53.4,639.3,52.2z"/>
			<path class="st2" d="M658.1,49.3v1.3h11v16.1h1.4V50.6h11v-1.3H658.1z"/>
			<path class="st2" d="M706.9,50.6v-1.3h-19.7v17.5h1.4v-2H705v-1.3h-16.3V50.6H706.9z"/>
			<path class="st2" d="M733.7,65.8l-7.7-16.6h-1.4L717,65.8l-0.4,0.9h1.5l0.4-0.9l6.9-14.9l6.8,14.9l0.4,0.9h1.5L733.7,65.8z"/>
			<path class="st2" d="M775.8,49.3h-1.2l-9.5,16.6l-0.5,0.9h1.4l0.5-0.9l7.8-13.6l0,13.6v0.9h1.4v-0.9L775.8,49.3z M756.5,65.8
				L747,49.3h-1.2v17.5h1.4V52.3l7.8,13.5l0.5,0.9h1.4L756.5,65.8z"/>
		</g>
		<g>
			<g>
				<path class="st2" d="M539.7,69.2L539,71l-2.2,6.4l-2.3-6.4l-0.6-1.8h-1.4l0.6,1.8l3,8.5h1.5l2.9-8.5l0.6-1.8H539.7z M518.7,69.2
					l-0.6,1.8l-2.3,6.4l-2.2-6.4l-0.6-1.8h-1.5l0.6,1.8l2.9,8.5h1.5l3-8.5l0.6-1.8H518.7z"/>
				<path class="st2" d="M540.6,69.2L540,71l-2.8,8.1h-0.8l-2.8-8.1l-0.6-1.8h-0.9l0.6,1.8l3.1,8.9h2.1l3-8.9l0.6-1.8H540.6z
					 M539.2,69.2l-0.6,1.8l-1.8,5.1L535,71l-0.6-1.8h-0.9l0.6,1.8l2.7,7.8l2.7-7.8l0.6-1.8H539.2z M519.7,69.2l-0.6,1.8l-2.8,8.1
					h-0.9l-2.8-8.1l-0.6-1.8h-0.9l0.6,1.8l3,8.9h2.1L520,71l0.6-1.8H519.7z M518.3,69.2l-0.6,1.8l-1.8,5l-1.7-5l-0.6-1.8h-0.9
					l0.6,1.8l2.6,7.8l2.7-7.8l0.6-1.8H518.3z"/>
			</g>
			<g>
				<path class="st2" d="M554.5,69.2v10.3h1.5V69.2H554.5z M577.1,69.2v10.3h1.5V69.2H577.1z"/>
				<path class="st2" d="M555.5,69.2V79H555v-9.9h-0.9v10.7h2.3V69.2H555.5z M578.1,69.2V79h-0.5v-9.9h-0.9v10.7h2.3V69.2H578.1z"/>
			</g>
			<g>
				<path class="st2" d="M615.3,69.2c-0.2,0.6-0.5,1.2-0.8,1.8c-0.1,0.2-0.2,0.4-0.3,0.6c-1.2,2.1-2.9,3.8-5,5
					c-2.1,1.2-4.5,1.8-7.2,1.8c-2.6,0-5-0.6-7.2-1.8c-2.1-1.2-3.8-2.9-5-5c-0.1-0.2-0.2-0.4-0.3-0.6c-0.3-0.6-0.6-1.2-0.8-1.8h-1.5
					c0.2,0.6,0.4,1.2,0.7,1.8c0.2,0.4,0.4,0.9,0.6,1.3c1.4,2.3,3.2,4.2,5.6,5.5c2.4,1.3,5,2,7.9,2c2.9,0,5.6-0.7,7.9-2
					c2.4-1.3,4.3-3.1,5.6-5.5c0.3-0.4,0.5-0.8,0.6-1.3c0.3-0.6,0.5-1.2,0.7-1.8H615.3z"/>
				<path class="st2" d="M614.8,69.2c-0.2,0.6-0.5,1.2-0.8,1.8c0,0.1-0.1,0.3-0.2,0.4c-1.2,2-2.8,3.6-4.9,4.8
					c-2,1.2-4.4,1.8-6.9,1.8c-2.5,0-4.9-0.6-6.9-1.8c-2.1-1.1-3.7-2.8-4.9-4.8c-0.1-0.1-0.1-0.3-0.2-0.4c-0.3-0.6-0.6-1.2-0.8-1.8
					h-0.9c0.2,0.6,0.4,1.2,0.8,1.8c0.1,0.3,0.3,0.5,0.4,0.8c1.3,2.2,3,3.9,5.2,5.2c2.2,1.3,4.7,1.9,7.4,1.9c2.7,0,5.2-0.6,7.4-1.9
					c2.2-1.2,4-3,5.2-5.2c0.1-0.3,0.3-0.5,0.4-0.8c0.3-0.6,0.5-1.1,0.8-1.8H614.8z M614.8,69.2c-0.2,0.6-0.5,1.2-0.8,1.8
					c0,0.1-0.1,0.3-0.2,0.4c-1.2,2-2.8,3.6-4.9,4.8c-2,1.2-4.4,1.8-6.9,1.8c-2.5,0-4.9-0.6-6.9-1.8c-2.1-1.1-3.7-2.8-4.9-4.8
					c-0.1-0.1-0.1-0.3-0.2-0.4c-0.3-0.6-0.6-1.2-0.8-1.8h-0.9c0.2,0.6,0.4,1.2,0.8,1.8c0.1,0.3,0.3,0.5,0.4,0.8
					c1.3,2.2,3,3.9,5.2,5.2c2.2,1.3,4.7,1.9,7.4,1.9c2.7,0,5.2-0.6,7.4-1.9c2.2-1.2,4-3,5.2-5.2c0.1-0.3,0.3-0.5,0.4-0.8
					c0.3-0.6,0.5-1.1,0.8-1.8H614.8z M614.8,69.2c-0.2,0.6-0.5,1.2-0.8,1.8c0,0.1-0.1,0.3-0.2,0.4c-1.2,2-2.8,3.6-4.9,4.8
					c-2,1.2-4.4,1.8-6.9,1.8c-2.5,0-4.9-0.6-6.9-1.8c-2.1-1.1-3.7-2.8-4.9-4.8c-0.1-0.1-0.1-0.3-0.2-0.4c-0.3-0.6-0.6-1.2-0.8-1.8
					h-0.9c0.2,0.6,0.4,1.2,0.8,1.8c0.1,0.3,0.3,0.5,0.4,0.8c1.3,2.2,3,3.9,5.2,5.2c2.2,1.3,4.7,1.9,7.4,1.9c2.7,0,5.2-0.6,7.4-1.9
					c2.2-1.2,4-3,5.2-5.2c0.1-0.3,0.3-0.5,0.4-0.8c0.3-0.6,0.5-1.1,0.8-1.8H614.8z M614.8,69.2c-0.2,0.6-0.5,1.2-0.8,1.8
					c0,0.1-0.1,0.3-0.2,0.4c-1.2,2-2.8,3.6-4.9,4.8c-2,1.2-4.4,1.8-6.9,1.8c-2.5,0-4.9-0.6-6.9-1.8c-2.1-1.1-3.7-2.8-4.9-4.8
					c-0.1-0.1-0.1-0.3-0.2-0.4c-0.3-0.6-0.6-1.2-0.8-1.8h-0.9c0.2,0.6,0.4,1.2,0.8,1.8c0.1,0.3,0.3,0.5,0.4,0.8
					c1.3,2.2,3,3.9,5.2,5.2c2.2,1.3,4.7,1.9,7.4,1.9c2.7,0,5.2-0.6,7.4-1.9c2.2-1.2,4-3,5.2-5.2c0.1-0.3,0.3-0.5,0.4-0.8
					c0.3-0.6,0.5-1.1,0.8-1.8H614.8z M614.8,69.2c-0.2,0.6-0.5,1.2-0.8,1.8c0,0.1-0.1,0.3-0.2,0.4c-1.2,2-2.8,3.6-4.9,4.8
					c-2,1.2-4.4,1.8-6.9,1.8c-2.5,0-4.9-0.6-6.9-1.8c-2.1-1.1-3.7-2.8-4.9-4.8c-0.1-0.1-0.1-0.3-0.2-0.4c-0.3-0.6-0.6-1.2-0.8-1.8
					h-0.9c0.2,0.6,0.4,1.2,0.8,1.8c0.1,0.3,0.3,0.5,0.4,0.8c1.3,2.2,3,3.9,5.2,5.2c2.2,1.3,4.7,1.9,7.4,1.9c2.7,0,5.2-0.6,7.4-1.9
					c2.2-1.2,4-3,5.2-5.2c0.1-0.3,0.3-0.5,0.4-0.8c0.3-0.6,0.5-1.1,0.8-1.8H614.8z M614.8,69.2c-0.2,0.6-0.5,1.2-0.8,1.8
					c0,0.1-0.1,0.3-0.2,0.4c-1.2,2-2.8,3.6-4.9,4.8c-2,1.2-4.4,1.8-6.9,1.8c-2.5,0-4.9-0.6-6.9-1.8c-2.1-1.1-3.7-2.8-4.9-4.8
					c-0.1-0.1-0.1-0.3-0.2-0.4c-0.3-0.6-0.6-1.2-0.8-1.8h-0.9c0.2,0.6,0.4,1.2,0.8,1.8c0.1,0.3,0.3,0.5,0.4,0.8
					c1.3,2.2,3,3.9,5.2,5.2c2.2,1.3,4.7,1.9,7.4,1.9c2.7,0,5.2-0.6,7.4-1.9c2.2-1.2,4-3,5.2-5.2c0.1-0.3,0.3-0.5,0.4-0.8
					c0.3-0.6,0.5-1.1,0.8-1.8H614.8z M614.8,69.2c-0.2,0.6-0.5,1.2-0.8,1.8c0,0.1-0.1,0.3-0.2,0.4c-1.2,2-2.8,3.6-4.9,4.8
					c-2,1.2-4.4,1.8-6.9,1.8c-2.5,0-4.9-0.6-6.9-1.8c-2.1-1.1-3.7-2.8-4.9-4.8c-0.1-0.1-0.1-0.3-0.2-0.4c-0.3-0.6-0.6-1.2-0.8-1.8
					h-0.9c0.2,0.6,0.4,1.2,0.8,1.8c0.1,0.3,0.3,0.5,0.4,0.8c1.3,2.2,3,3.9,5.2,5.2c2.2,1.3,4.7,1.9,7.4,1.9c2.7,0,5.2-0.6,7.4-1.9
					c2.2-1.2,4-3,5.2-5.2c0.1-0.3,0.3-0.5,0.4-0.8c0.3-0.6,0.5-1.1,0.8-1.8H614.8z M614.8,69.2c-0.2,0.6-0.5,1.2-0.8,1.8
					c0,0.1-0.1,0.3-0.2,0.4c-1.2,2-2.8,3.6-4.9,4.8c-2,1.2-4.4,1.8-6.9,1.8c-2.5,0-4.9-0.6-6.9-1.8c-2.1-1.1-3.7-2.8-4.9-4.8
					c-0.1-0.1-0.1-0.3-0.2-0.4c-0.3-0.6-0.6-1.2-0.8-1.8h-0.9c0.2,0.6,0.4,1.2,0.8,1.8c0.1,0.3,0.3,0.5,0.4,0.8
					c1.3,2.2,3,3.9,5.2,5.2c2.2,1.3,4.7,1.9,7.4,1.9c2.7,0,5.2-0.6,7.4-1.9c2.2-1.2,4-3,5.2-5.2c0.1-0.3,0.3-0.5,0.4-0.8
					c0.3-0.6,0.5-1.1,0.8-1.8H614.8z M614.8,69.2c-0.2,0.6-0.5,1.2-0.8,1.8c0,0.1-0.1,0.3-0.2,0.4c-1.2,2-2.8,3.6-4.9,4.8
					c-2,1.2-4.4,1.8-6.9,1.8c-2.5,0-4.9-0.6-6.9-1.8c-2.1-1.1-3.7-2.8-4.9-4.8c-0.1-0.1-0.1-0.3-0.2-0.4c-0.3-0.6-0.6-1.2-0.8-1.8
					h-0.9c0.2,0.6,0.4,1.2,0.8,1.8c0.1,0.3,0.3,0.5,0.4,0.8c1.3,2.2,3,3.9,5.2,5.2c2.2,1.3,4.7,1.9,7.4,1.9c2.7,0,5.2-0.6,7.4-1.9
					c2.2-1.2,4-3,5.2-5.2c0.1-0.3,0.3-0.5,0.4-0.8c0.3-0.6,0.5-1.1,0.8-1.8H614.8z M616.3,69.2c-0.1,0.6-0.4,1.2-0.7,1.8
					c-0.1,0.4-0.3,0.7-0.5,1c-1.3,2.2-3.1,4-5.4,5.3c-2.3,1.3-4.9,1.9-7.7,1.9c-2.8,0-5.4-0.6-7.7-1.9c-2.3-1.3-4.1-3.1-5.4-5.3
					c-0.2-0.3-0.4-0.7-0.5-1c-0.3-0.6-0.5-1.2-0.7-1.8h-0.9c0.1,0.6,0.4,1.2,0.6,1.8c0.2,0.5,0.5,1,0.8,1.5c1.4,2.4,3.3,4.3,5.7,5.7
					c2.4,1.3,5.2,2,8.1,2c3,0,5.7-0.7,8.2-2c2.4-1.4,4.4-3.3,5.8-5.7c0.3-0.5,0.5-1,0.7-1.5c0.3-0.6,0.5-1.2,0.6-1.8H616.3z
					 M614.8,69.2c-0.2,0.6-0.5,1.2-0.8,1.8c0,0.1-0.1,0.3-0.2,0.4c-1.2,2-2.8,3.6-4.9,4.8c-2,1.2-4.4,1.8-6.9,1.8
					c-2.5,0-4.9-0.6-6.9-1.8c-2.1-1.1-3.7-2.8-4.9-4.8c-0.1-0.1-0.1-0.3-0.2-0.4c-0.3-0.6-0.6-1.2-0.8-1.8h-0.9
					c0.2,0.6,0.4,1.2,0.8,1.8c0.1,0.3,0.3,0.5,0.4,0.8c1.3,2.2,3,3.9,5.2,5.2c2.2,1.3,4.7,1.9,7.4,1.9c2.7,0,5.2-0.6,7.4-1.9
					c2.2-1.2,4-3,5.2-5.2c0.1-0.3,0.3-0.5,0.4-0.8c0.3-0.6,0.5-1.1,0.8-1.8H614.8z M614.8,69.2c-0.2,0.6-0.5,1.2-0.8,1.8
					c0,0.1-0.1,0.3-0.2,0.4c-1.2,2-2.8,3.6-4.9,4.8c-2,1.2-4.4,1.8-6.9,1.8c-2.5,0-4.9-0.6-6.9-1.8c-2.1-1.1-3.7-2.8-4.9-4.8
					c-0.1-0.1-0.1-0.3-0.2-0.4c-0.3-0.6-0.6-1.2-0.8-1.8h-0.9c0.2,0.6,0.4,1.2,0.8,1.8c0.1,0.3,0.3,0.5,0.4,0.8
					c1.3,2.2,3,3.9,5.2,5.2c2.2,1.3,4.7,1.9,7.4,1.9c2.7,0,5.2-0.6,7.4-1.9c2.2-1.2,4-3,5.2-5.2c0.1-0.3,0.3-0.5,0.4-0.8
					c0.3-0.6,0.5-1.1,0.8-1.8H614.8z M614.8,69.2c-0.2,0.6-0.5,1.2-0.8,1.8c0,0.1-0.1,0.3-0.2,0.4c-1.2,2-2.8,3.6-4.9,4.8
					c-2,1.2-4.4,1.8-6.9,1.8c-2.5,0-4.9-0.6-6.9-1.8c-2.1-1.1-3.7-2.8-4.9-4.8c-0.1-0.1-0.1-0.3-0.2-0.4c-0.3-0.6-0.6-1.2-0.8-1.8
					h-0.9c0.2,0.6,0.4,1.2,0.8,1.8c0.1,0.3,0.3,0.5,0.4,0.8c1.3,2.2,3,3.9,5.2,5.2c2.2,1.3,4.7,1.9,7.4,1.9c2.7,0,5.2-0.6,7.4-1.9
					c2.2-1.2,4-3,5.2-5.2c0.1-0.3,0.3-0.5,0.4-0.8c0.3-0.6,0.5-1.1,0.8-1.8H614.8z M614.8,69.2c-0.2,0.6-0.5,1.2-0.8,1.8
					c0,0.1-0.1,0.3-0.2,0.4c-1.2,2-2.8,3.6-4.9,4.8c-2,1.2-4.4,1.8-6.9,1.8c-2.5,0-4.9-0.6-6.9-1.8c-2.1-1.1-3.7-2.8-4.9-4.8
					c-0.1-0.1-0.1-0.3-0.2-0.4c-0.3-0.6-0.6-1.2-0.8-1.8h-0.9c0.2,0.6,0.4,1.2,0.8,1.8c0.1,0.3,0.3,0.5,0.4,0.8
					c1.3,2.2,3,3.9,5.2,5.2c2.2,1.3,4.7,1.9,7.4,1.9c2.7,0,5.2-0.6,7.4-1.9c2.2-1.2,4-3,5.2-5.2c0.1-0.3,0.3-0.5,0.4-0.8
					c0.3-0.6,0.5-1.1,0.8-1.8H614.8z M614.8,69.2c-0.2,0.6-0.5,1.2-0.8,1.8c0,0.1-0.1,0.3-0.2,0.4c-1.2,2-2.8,3.6-4.9,4.8
					c-2,1.2-4.4,1.8-6.9,1.8c-2.5,0-4.9-0.6-6.9-1.8c-2.1-1.1-3.7-2.8-4.9-4.8c-0.1-0.1-0.1-0.3-0.2-0.4c-0.3-0.6-0.6-1.2-0.8-1.8
					h-0.9c0.2,0.6,0.4,1.2,0.8,1.8c0.1,0.3,0.3,0.5,0.4,0.8c1.3,2.2,3,3.9,5.2,5.2c2.2,1.3,4.7,1.9,7.4,1.9c2.7,0,5.2-0.6,7.4-1.9
					c2.2-1.2,4-3,5.2-5.2c0.1-0.3,0.3-0.5,0.4-0.8c0.3-0.6,0.5-1.1,0.8-1.8H614.8z M614.8,69.2c-0.2,0.6-0.5,1.2-0.8,1.8
					c0,0.1-0.1,0.3-0.2,0.4c-1.2,2-2.8,3.6-4.9,4.8c-2,1.2-4.4,1.8-6.9,1.8c-2.5,0-4.9-0.6-6.9-1.8c-2.1-1.1-3.7-2.8-4.9-4.8
					c-0.1-0.1-0.1-0.3-0.2-0.4c-0.3-0.6-0.6-1.2-0.8-1.8h-0.9c0.2,0.6,0.4,1.2,0.8,1.8c0.1,0.3,0.3,0.5,0.4,0.8
					c1.3,2.2,3,3.9,5.2,5.2c2.2,1.3,4.7,1.9,7.4,1.9c2.7,0,5.2-0.6,7.4-1.9c2.2-1.2,4-3,5.2-5.2c0.1-0.3,0.3-0.5,0.4-0.8
					c0.3-0.6,0.5-1.1,0.8-1.8H614.8z M614.8,69.2c-0.2,0.6-0.5,1.2-0.8,1.8c0,0.1-0.1,0.3-0.2,0.4c-1.2,2-2.8,3.6-4.9,4.8
					c-2,1.2-4.4,1.8-6.9,1.8c-2.5,0-4.9-0.6-6.9-1.8c-2.1-1.1-3.7-2.8-4.9-4.8c-0.1-0.1-0.1-0.3-0.2-0.4c-0.3-0.6-0.6-1.2-0.8-1.8
					h-0.9c0.2,0.6,0.4,1.2,0.8,1.8c0.1,0.3,0.3,0.5,0.4,0.8c1.3,2.2,3,3.9,5.2,5.2c2.2,1.3,4.7,1.9,7.4,1.9c2.7,0,5.2-0.6,7.4-1.9
					c2.2-1.2,4-3,5.2-5.2c0.1-0.3,0.3-0.5,0.4-0.8c0.3-0.6,0.5-1.1,0.8-1.8H614.8z M614.8,69.2c-0.2,0.6-0.5,1.2-0.8,1.8
					c0,0.1-0.1,0.3-0.2,0.4c-1.2,2-2.8,3.6-4.9,4.8c-2,1.2-4.4,1.8-6.9,1.8c-2.5,0-4.9-0.6-6.9-1.8c-2.1-1.1-3.7-2.8-4.9-4.8
					c-0.1-0.1-0.1-0.3-0.2-0.4c-0.3-0.6-0.6-1.2-0.8-1.8h-0.9c0.2,0.6,0.4,1.2,0.8,1.8c0.1,0.3,0.3,0.5,0.4,0.8
					c1.3,2.2,3,3.9,5.2,5.2c2.2,1.3,4.7,1.9,7.4,1.9c2.7,0,5.2-0.6,7.4-1.9c2.2-1.2,4-3,5.2-5.2c0.1-0.3,0.3-0.5,0.4-0.8
					c0.3-0.6,0.5-1.1,0.8-1.8H614.8z M614.8,69.2c-0.2,0.6-0.5,1.2-0.8,1.8c0,0.1-0.1,0.3-0.2,0.4c-1.2,2-2.8,3.6-4.9,4.8
					c-2,1.2-4.4,1.8-6.9,1.8c-2.5,0-4.9-0.6-6.9-1.8c-2.1-1.1-3.7-2.8-4.9-4.8c-0.1-0.1-0.1-0.3-0.2-0.4c-0.3-0.6-0.6-1.2-0.8-1.8
					h-0.9c0.2,0.6,0.4,1.2,0.8,1.8c0.1,0.3,0.3,0.5,0.4,0.8c1.3,2.2,3,3.9,5.2,5.2c2.2,1.3,4.7,1.9,7.4,1.9c2.7,0,5.2-0.6,7.4-1.9
					c2.2-1.2,4-3,5.2-5.2c0.1-0.3,0.3-0.5,0.4-0.8c0.3-0.6,0.5-1.1,0.8-1.8H614.8z M614.8,69.2c-0.2,0.6-0.5,1.2-0.8,1.8
					c0,0.1-0.1,0.3-0.2,0.4c-1.2,2-2.8,3.6-4.9,4.8c-2,1.2-4.4,1.8-6.9,1.8c-2.5,0-4.9-0.6-6.9-1.8c-2.1-1.1-3.7-2.8-4.9-4.8
					c-0.1-0.1-0.1-0.3-0.2-0.4c-0.3-0.6-0.6-1.2-0.8-1.8h-0.9c0.2,0.6,0.4,1.2,0.8,1.8c0.1,0.3,0.3,0.5,0.4,0.8
					c1.3,2.2,3,3.9,5.2,5.2c2.2,1.3,4.7,1.9,7.4,1.9c2.7,0,5.2-0.6,7.4-1.9c2.2-1.2,4-3,5.2-5.2c0.1-0.3,0.3-0.5,0.4-0.8
					c0.3-0.6,0.5-1.1,0.8-1.8H614.8z"/>
			</g>
			<g>
				<path class="st2" d="M625.5,69.2v10.3h1.4V69.2H625.5z"/>
				<path class="st2" d="M626.5,69.2V79h-0.6v-9.9H625v10.7h2.4V69.2H626.5z"/>
			</g>
			<g>
				<path class="st2" d="M655.9,71c-0.1-0.6-0.2-1.3-0.5-1.8h-1.6c0.3,0.5,0.5,1.1,0.6,1.8c0,0.4,0.1,0.7,0.1,1
					c0,1.9-0.8,3.4-2.3,4.6c-1.5,1.2-3.8,1.8-6.8,1.8c-2,0-3.9-0.4-5.7-1.1c-1.8-0.7-3.2-1.6-4.2-2.8l-0.8,1c1.1,1.3,2.6,2.3,4.5,3
					c1.9,0.8,4,1.2,6.2,1.2c2.3,0,4.3-0.4,5.8-1c1.6-0.7,2.8-1.6,3.5-2.8c0.8-1.2,1.1-2.5,1.1-3.9C656,71.6,656,71.3,655.9,71z"/>
				<path class="st2" d="M656.4,71c0-0.6-0.2-1.3-0.4-1.8h-1c0.3,0.5,0.4,1.1,0.5,1.8c0.1,0.3,0.1,0.6,0.1,1c0,1.3-0.4,2.5-1.1,3.6
					c-0.7,1.1-1.8,2-3.3,2.6c-1.5,0.6-3.4,1-5.7,1c-2.1,0-4.2-0.4-6-1.1c-1.8-0.7-3.1-1.6-4.1-2.6l0.3-0.3c1,1,2.3,1.9,4,2.5
					c1.8,0.8,3.8,1.1,5.9,1.1c3.1,0,5.5-0.6,7.1-1.9c1.6-1.3,2.5-2.9,2.5-4.9c0-0.4,0-0.7-0.1-1c-0.1-0.6-0.3-1.3-0.6-1.8h-1.1
					c0.4,0.5,0.6,1.1,0.8,1.8c0.1,0.3,0.1,0.7,0.1,1c0,1.8-0.7,3.1-2.1,4.2c-1.4,1.1-3.6,1.7-6.5,1.7c-2,0-3.8-0.4-5.6-1
					c-1.7-0.7-3-1.6-4-2.7l-0.4-0.4l-1.3,1.8l0.2,0.3c1.1,1.3,2.7,2.3,4.7,3.1c2,0.8,4.2,1.2,6.4,1.2c2.4,0,4.4-0.4,6-1.1
					c1.6-0.7,2.9-1.7,3.7-2.9c0.8-1.3,1.2-2.6,1.2-4.1C656.4,71.6,656.4,71.3,656.4,71z"/>
			</g>
			<g>
				<path class="st2" d="M669.1,69.2v10.3h1.4V69.2H669.1z"/>
				<path class="st2" d="M670.1,69.2V79h-0.5v-9.9h-0.9v10.7h2.3V69.2H670.1z"/>
			</g>
			<g>
				<path class="st2" d="M688.7,78.1v-9h-1.5v10.3h20.3v-1.3H688.7z"/>
				<path class="st2" d="M689.2,77.7v-8.5h-0.9v9.4h18.8V79h-19.4v-9.9h-0.9v10.7H708v-2.2H689.2z"/>
			</g>
			<g>
				<path class="st2" d="M736.1,71l-0.8-1.8h-1.5l0.1,0.3h-16.9l0.1-0.3h-1.5l-0.8,1.8l-3.9,8.5h1.6l3.9-8.5l0.1-0.3h18l0.1,0.3
					l3.9,8.5h1.6L736.1,71z"/>
				<path class="st2" d="M734.2,69.2h-17.6l-0.3,0.7h18.3L734.2,69.2z M734.2,69.2h-17.6l-0.3,0.7h18.3L734.2,69.2z M734.2,69.2
					h-17.6l-0.3,0.7h18.3L734.2,69.2z M734.2,69.2h-17.6l-0.3,0.7h18.3L734.2,69.2z M734.2,69.2h-17.6l-0.3,0.7h18.3L734.2,69.2z
					 M734.2,69.2h-17.6l-0.3,0.7h18.3L734.2,69.2z M734.2,69.2h-17.6l-0.3,0.7h18.3L734.2,69.2z M734.2,69.2h-17.6l-0.3,0.7h18.3
					L734.2,69.2z M734.2,69.2h-17.6l-0.3,0.7h18.3L734.2,69.2z M734.2,69.2h-17.6l-0.3,0.7h18.3L734.2,69.2z M734.2,69.2h-17.6
					l-0.3,0.7h18.3L734.2,69.2z M734.2,69.2h-17.6l-0.3,0.7h18.3L734.2,69.2z M734.2,69.2h-17.6l-0.3,0.7h18.3L734.2,69.2z
					 M734.2,69.2h-17.6l-0.3,0.7h18.3L734.2,69.2z M734.2,69.2h-17.6l-0.3,0.7h18.3L734.2,69.2z M734.2,69.2h-17.6l-0.3,0.7h18.3
					L734.2,69.2z M734.2,69.2h-17.6l-0.3,0.7h18.3L734.2,69.2z M736.5,71l-0.8-1.8h-1l0.8,1.8l3.8,8.1h-0.6L735,71l-0.3-0.7h-18.6
					l-0.3,0.7L712,79h-0.6l3.8-8.1l0.8-1.8h-1l-0.8,1.8l-4.2,8.9h2.6l4-8.8h17.4l4,8.8h2.6L736.5,71z M734.2,69.2h-17.6l-0.3,0.7
					h18.3L734.2,69.2z M734.2,69.2h-17.6l-0.3,0.7h18.3L734.2,69.2z M734.2,69.2h-17.6l-0.3,0.7h18.3L734.2,69.2z M734.2,69.2h-17.6
					l-0.3,0.7h18.3L734.2,69.2z M734.2,69.2h-17.6l-0.3,0.7h18.3L734.2,69.2z M734.2,69.2h-17.6l-0.3,0.7h18.3L734.2,69.2z
					 M734.2,69.2h-17.6l-0.3,0.7h18.3L734.2,69.2z M734.2,69.2h-17.6l-0.3,0.7h18.3L734.2,69.2z M734.2,69.2h-17.6l-0.3,0.7h18.3
					L734.2,69.2z M734.2,69.2h-17.6l-0.3,0.7h18.3L734.2,69.2z M734.2,69.2h-17.6l-0.3,0.7h18.3L734.2,69.2z M734.2,69.2h-17.6
					l-0.3,0.7h18.3L734.2,69.2z M734.2,69.2h-17.6l-0.3,0.7h18.3L734.2,69.2z M734.2,69.2h-17.6l-0.3,0.7h18.3L734.2,69.2z
					 M734.2,69.2h-17.6l-0.3,0.7h18.3L734.2,69.2z M734.2,69.2h-17.6l-0.3,0.7h18.3L734.2,69.2z M734.2,69.2h-17.6l-0.3,0.7h18.3
					L734.2,69.2z M734.2,69.2h-17.6l-0.3,0.7h18.3L734.2,69.2z"/>
			</g>
			<g>
				<path class="st2" d="M763.3,69.2l-1,1.8l-1.4,2.5l-1.4-2.5l-1-1.8h-1.5l1,1.8l2.5,4.4h0.8l2.5-4.4l1-1.8H763.3z M774.4,69.2V71
					l0,8.5h1.4V69.2H774.4z M745.8,69.2v10.3h1.4V69.2H745.8z"/>
				<path class="st2" d="M762.8,69.2l-1,1.8l-0.9,1.6l-0.9-1.6l-1-1.8h-1l1,1.8l2,3.4l2-3.4l1-1.8H762.8z M764.2,69.2l-1,1.8
					l-2.3,3.9h-0.3l-2.3-3.9l-1-1.8h-1.1l1,1.8l2.8,4.8h1.3l2.8-4.8l1-1.8H764.2z M776.3,71v-1.8h-0.9V71l0,8.1h-0.5v-9.9H774v10.7
					h2.3L776.3,71z M746.8,69.2V79h-0.5v-9.9h-0.9v10.7h2.3V69.2H746.8z"/>
			</g>
		</g>
		<path class="st2" d="M590,71h-13.3v-1.8h12.6C589.4,69.8,589.7,70.4,590,71z"/>
		<path class="st2" d="M627.4,69.2V71H614c0.3-0.6,0.6-1.2,0.8-1.8H627.4z"/>
		<path class="st2" d="M671,69.2V71h-17c-0.1-0.7-0.4-1.3-0.8-1.8H671z"/>
		<rect x="686.8" y="69.2" class="st2" width="2.4" height="1.8"/>
		<polygon class="st2" points="735.7,69.2 736.5,71 714.2,71 715,69.2 		"/>
		<polygon class="st2" points="758.9,69.2 759.9,71 745.4,71 745.4,69.2 		"/>
		<polygon class="st2" points="776.3,69.2 776.3,71 761.8,71 762.8,69.2 		"/>
		<path class="st2" d="M588,65.8c0,0.3,0.1,0.6,0.1,0.9h-11.1v-0.9H588z"/>
		<path class="st2" d="M626.9,65.8v0.9h-11.1c0.1-0.3,0.1-0.6,0.1-0.9H626.9z"/>
		<path class="st2" d="M688.7,65.8v0.9h-37.6c-0.2-0.1-0.5-0.2-0.7-0.3c-0.5-0.2-1.1-0.4-1.8-0.6H688.7z"/>
		<polygon class="st2" points="717,65.8 718.5,65.8 718.1,66.7 716.6,66.7 		"/>
		<polygon class="st2" points="747.2,65.8 747.2,66.7 732.6,66.7 732.2,65.8 		"/>
		<polygon class="st2" points="766.6,65.8 766,66.7 755.6,66.7 755.1,65.8 		"/>
		<rect x="774.4" y="65.8" class="st2" width="6.5" height="0.9"/>
	</g>
	<path class="st4" d="M191.7,238c-17.4,0-34.9,0-52.3,0c-6.8-24.3-13.7-48.6-20.5-72.8c21.3,0,42.7,0,64,0
		C185.8,189.4,188.8,213.7,191.7,238z"/>
	<g>
		<polygon class="st2" points="179.6,186.2 174,202.8 173.7,203.7 163.5,203.7 163.2,202.8 158.1,188.2 153,202.8 152.7,203.7 
			142.5,203.7 142.2,202.8 136.8,187.1 131.1,187.1 130.9,186.2 138,186.2 143.7,202.8 151.6,202.8 157.4,186.2 158.8,186.2 
			164.6,202.8 172.5,202.8 178.2,186.2 		"/>
		<polygon class="st2" points="173.4,206.2 172.8,207.9 169.7,216.9 167.6,216.9 164.5,207.9 163.9,206.2 166.2,206.2 166.8,207.9 
			168.6,213 170.3,207.9 171,206.2 		"/>
		<polygon class="st2" points="152.4,206.2 151.8,207.9 148.6,216.9 146.5,216.9 143.4,207.9 142.8,206.2 145.3,206.2 145.9,207.9 
			147.6,213 149.4,207.9 150,206.2 		"/>
	</g>
	<path class="st3" d="M611.2,254.4c-17.4,0-34.9,0-52.3,0c-6.8-24.3-13.7-48.6-20.5-72.8c21.3,0,42.7,0,64,0
		C605.3,205.8,608.3,230.1,611.2,254.4z"/>
	<g>
		<polygon points="599.2,202.6 593.5,219.2 593.2,220.1 583,220.1 582.7,219.2 577.6,204.6 572.5,219.2 572.2,220.1 562,220.1 
			561.7,219.2 556.3,203.5 550.7,203.5 550.5,202.6 557.6,202.6 563.2,219.2 571.1,219.2 576.9,202.6 578.3,202.6 584.1,219.2 
			592,219.2 597.7,202.6 		"/>
		<polygon points="592.9,222.6 592.3,224.4 589.2,233.3 587.1,233.3 584,224.4 583.4,222.6 585.7,222.6 586.4,224.4 588.1,229.5 
			589.9,224.4 590.5,222.6 		"/>
		<polygon points="571.9,222.6 571.3,224.4 568.2,233.3 566,233.3 563,224.4 562.3,222.6 564.8,222.6 565.4,224.4 567.1,229.4 
			568.9,224.4 569.5,222.6 		"/>
	</g>
	<text transform="matrix(1 0 0 1 123.4833 324.4397)" class="st5 st6">_WHOISDIGGER</text>
	<text transform="matrix(1 0 0 1 162.1068 393.7726)"><tspan x="0" y="0" class="st7 st6">ROUTE</tspan><tspan x="66.4" y="0" class="st8 st6">43</tspan></text>
	<text transform="matrix(1 0 0 1 605.4398 389.7726)"><tspan x="0" y="0" class="st2 st7 st6">ROUTE</tspan><tspan x="66.4" y="0" class="st2 st8 st6">43</tspan></text>
	<text transform="matrix(0 1 -1 0 96.748 297.6379)" class="st9 st6"></text>
	<text transform="matrix(1 0 0 1 554.9198 324.4395)" class="st2 st5 st6">_WHOISDIGGER</text>
	<text transform="matrix(0 1 -1 0 528.1844 297.6377)" class="st2 st9 st6"></text>
</g>
</svg>
